<?xml version="1.0" standalone="no"?>
<!DOCTYPE svg PUBLIC "-//W3C//DTD SVG 20010904//EN"
 "http://www.w3.org/TR/2001/REC-SVG-20010904/DTD/svg10.dtd">
<svg version="1.0" xmlns="http://www.w3.org/2000/svg"
 width="1024.000000pt" height="1024.000000pt" viewBox="0 0 1024.000000 1024.000000"
 preserveAspectRatio="xMidYMid meet">

<g transform="translate(0.000000,1024.000000) scale(0.100000,-0.100000)"
fill="#000000" stroke="none">
<path d="M0 5120 l0 -5120 5120 0 5120 0 0 5120 0 5120 -5120 0 -5120 0 0
-5120z m4960 4630 c7 -14 8 -42 2 -85 -5 -36 -8 -139 -6 -228 13 -868 14
-1106 3 -1113 -7 -4 -24 5 -41 25 l-28 31 0 688 c0 379 3 692 7 695 14 14 53
6 63 -13z m476 -42 c5 -7 -8 -25 -31 -45 -29 -25 -41 -30 -52 -22 -36 30 16
111 58 89 10 -6 21 -15 25 -22z m-809 -17 c11 -5 28 -26 37 -45 14 -30 15 -42
5 -81 -9 -35 -9 -49 0 -58 6 -6 11 -34 11 -63 0 -42 -5 -56 -26 -77 -35 -35
-86 -51 -139 -42 -61 9 -90 34 -81 69 6 25 10 27 34 21 15 -4 48 -9 74 -12 39
-4 48 -2 57 16 6 11 9 32 5 46 -5 21 -12 25 -40 25 -62 0 -57 62 5 68 28 3 32
7 29 30 -5 41 -46 57 -94 37 -40 -17 -64 -8 -64 25 0 55 114 81 187 41z m517
-2 c11 -56 7 -1158 -4 -1180 -13 -24 -36 -25 -42 -1 -2 9 -2 286 0 615 4 564
5 597 22 597 12 0 20 -10 24 -31z m571 -1 c3 -13 4 -102 3 -198 -3 -174 -3
-174 -28 -187 -44 -22 -50 -4 -50 143 0 125 -1 134 -19 134 -10 0 -21 6 -24
14 -8 19 42 84 71 92 12 3 22 10 22 15 0 19 20 8 25 -13z m-1441 -25 c3 -21 6
-75 6 -119 0 -64 3 -83 15 -88 8 -3 15 -15 15 -26 0 -11 -7 -20 -15 -20 -10 0
-15 -10 -15 -34 0 -39 -19 -59 -52 -54 -18 2 -24 10 -26 36 -3 30 -5 32 -45
32 -108 0 -142 22 -116 72 22 43 151 218 167 228 10 5 27 10 38 10 17 0 23 -8
28 -37z m1885 -15 c26 -28 37 -84 23 -121 -11 -29 -7 -57 9 -57 5 0 9 -21 9
-46 0 -103 -107 -139 -199 -68 -2 2 -5 14 -7 26 -2 13 -7 35 -10 50 -4 19 0
37 11 55 12 18 14 28 7 31 -7 2 -12 25 -12 53 0 41 5 54 26 74 36 34 114 35
143 3z m-674 -18 c12 -39 -37 -84 -64 -57 -15 15 -14 29 5 55 19 27 51 29 59
2z m-1723 -130 c-6 -26 10 -52 28 -47 21 5 60 -26 60 -48 0 -29 -19 -61 -43
-74 -23 -12 -29 -12 -50 2 -22 14 -25 25 -29 89 -5 72 4 103 26 95 6 -3 10
-10 8 -17z m2615 -47 c6 -38 14 -79 17 -93 5 -21 5 -22 -3 -5 -9 19 -10 18
-11 -5 -1 -14 -4 -20 -6 -13 -4 9 -11 9 -29 1 -31 -14 -53 -5 -66 29 -13 35 3
73 30 73 29 0 35 -29 7 -36 -31 -7 -24 -47 7 -42 16 2 23 13 29 42 7 34 5 43
-14 63 -23 24 -23 25 -4 39 11 8 23 14 26 14 3 0 11 -30 17 -67z m-2812 17
c-6 -28 -5 -30 22 -30 36 0 53 -16 53 -49 0 -35 -28 -61 -65 -61 -44 0 -55 16
-55 78 0 59 13 92 36 92 12 0 14 -7 9 -30z m3038 -21 c45 -24 50 -67 12 -104
-34 -35 -71 -33 -94 6 -38 63 19 131 82 98z m-3421 -205 c15 -32 0 -59 -32
-59 -13 0 -28 8 -33 17 -15 23 6 68 33 68 12 0 25 -10 32 -26z m232 -50 c22
-8 20 -41 -3 -54 -24 -12 -131 -13 -150 -1 -12 8 -12 13 3 35 15 23 23 26 75
26 33 0 66 -3 75 -6z m1320 -17 c8 -14 8 -20 -4 -27 -9 -6 -246 -9 -620 -7
-583 2 -605 3 -608 21 -2 10 2 22 10 27 7 5 283 8 612 6 562 -2 600 -3 610
-20z m2663 1 c12 -13 14 -21 6 -29 -8 -8 -295 -11 -1024 -10 -558 1 -1024 4
-1036 8 -27 6 -30 28 -5 43 12 7 335 9 1029 8 947 -3 1013 -4 1030 -20z
m-4686 -51 c8 -7 80 -82 158 -167 l143 -155 832 -5 831 -5 0 -25 c0 -22 -5
-25 -55 -33 -30 -4 -408 -6 -840 -5 -749 3 -786 4 -813 22 -38 26 -327 335
-327 350 0 32 42 46 71 23z m469 -83 c0 -38 -21 -54 -49 -37 -25 16 -25 49 0
66 31 22 49 11 49 -29z m760 2 c0 -8 -9 -18 -20 -21 -27 -9 -25 -22 5 -29 54
-14 35 -96 -22 -96 -62 0 -72 73 -19 126 36 36 56 43 56 20z m-162 -62 c2 -61
-8 -92 -27 -80 -12 8 -16 128 -4 140 17 17 28 -5 31 -60z m307 46 c4 -11 3
-45 -1 -76 -5 -43 -10 -54 -23 -52 -12 2 -16 15 -17 47 -1 29 -7 47 -18 53
-20 11 -12 28 15 28 10 0 19 5 19 10 0 18 18 10 25 -10z m130 -56 c0 -55 -3
-69 -15 -69 -11 0 -16 13 -18 45 -2 25 -10 50 -18 57 -13 10 -12 13 8 27 12 9
27 15 33 13 5 -2 10 -35 10 -73z m289 54 c3 -13 6 -44 6 -69 l0 -46 -65 -1
c-49 0 -65 3 -65 13 0 14 99 125 111 125 4 0 9 -10 13 -22z m151 2 c27 -30 22
-70 -14 -102 -34 -30 -84 -41 -61 -13 10 13 10 19 -4 33 -9 10 -16 30 -16 45
0 52 60 76 95 37z m787 -5 c9 -44 -3 -125 -19 -125 -17 0 -21 11 -26 82 -4 57
-2 60 34 67 4 0 9 -10 11 -24z m390 -4 c7 -20 6 -22 -9 -16 -14 5 -12 1 5 -15
21 -20 21 -23 7 -50 -18 -34 -58 -49 -81 -29 -28 23 -5 94 36 112 8 4 -2 5
-23 3 -34 -4 -37 -3 -26 10 20 24 80 14 91 -15z m188 10 c14 -26 12 -71 -3
-101 -10 -20 -21 -25 -50 -26 -46 -1 -72 23 -43 40 11 6 28 19 38 29 10 9 23
17 28 17 6 0 10 7 10 15 0 18 -8 18 -40 0 -34 -20 -40 -19 -40 8 0 32 7 37 51
37 28 0 41 -5 49 -19z m168 -25 c16 -49 1 -93 -34 -102 -32 -8 -49 0 -69 29
-30 46 12 121 63 115 21 -2 30 -11 40 -42z m230 20 c3 -14 0 -17 -12 -13 -10
4 -16 1 -16 -8 0 -7 10 -15 23 -17 14 -2 23 -11 25 -26 9 -59 -90 -88 -124
-37 -16 24 -16 27 1 39 13 9 16 20 11 40 -9 38 0 47 47 44 32 -2 43 -8 45 -22z
m152 2 c24 -26 25 -40 5 -78 -22 -43 -54 -49 -82 -16 -59 69 15 160 77 94z
m-3220 -58 c0 -56 -3 -70 -15 -70 -11 0 -15 12 -15 48 0 26 3 57 6 70 12 44
24 21 24 -48z m242 53 c25 -30 29 -53 13 -83 -33 -64 -105 -42 -105 31 0 58
58 91 92 52z m2025 -50 c4 -38 1 -52 -12 -63 -14 -12 -18 -12 -26 1 -13 21
-11 39 6 45 17 7 21 34 5 34 -5 0 -15 -9 -22 -20 -21 -33 -29 -22 -13 17 29
70 55 64 62 -14z m1211 35 c21 -21 14 -57 -12 -64 -32 -8 -46 2 -46 30 0 24
17 46 35 46 6 0 16 -5 23 -12z m576 -10 c16 -26 -4 -53 -40 -53 -23 0 -30 5
-32 23 -7 47 47 69 72 30z m-220 -14 c8 -21 -11 -44 -35 -44 -19 0 -35 33 -24
50 10 16 52 12 59 -6z m-4669 -5 c4 -5 6 -334 6 -731 l-2 -720 -22 -19 c-48
-40 -47 -55 -48 544 0 309 -2 640 -5 735 -4 126 -2 177 7 188 13 16 55 19 64
3z m1815 1 c0 -5 -6 -10 -14 -10 -8 0 -18 5 -21 10 -3 6 3 10 14 10 12 0 21
-4 21 -10z m1940 6 c0 -3 -4 -8 -10 -11 -5 -3 -10 -1 -10 4 0 6 5 11 10 11 6
0 10 -2 10 -4z m1340 -11 c0 -11 -12 -15 -49 -15 -68 0 -75 18 -9 23 29 2 54
4 56 5 1 1 2 -5 2 -13z m-620 -95 c0 -28 -4 -40 -14 -40 -28 0 -29 54 -2 72
16 11 16 11 16 -32z m-153 -18 c6 -4 16 -19 22 -34 10 -26 13 -27 87 -26 79 0
99 -8 89 -34 -5 -12 -29 -18 -93 -23 -48 -4 -90 -12 -94 -19 -4 -6 -8 -36 -8
-67 0 -60 -4 -71 -26 -62 -10 4 -14 25 -14 78 0 59 -4 75 -20 90 -49 45 2 132
57 97z m-4492 -12 c8 -13 7 -1433 -1 -1453 -7 -18 -53 -32 -65 -20 -10 10 -13
1459 -4 1474 8 12 62 12 70 -1z m5076 0 c24 -13 25 -55 2 -65 -27 -12 -223
-17 -272 -8 -58 11 -75 37 -42 64 20 17 39 19 158 19 74 0 143 -5 154 -10z
m413 -12 c8 -13 8 -23 0 -35 -10 -15 -30 -18 -140 -21 -156 -3 -174 0 -174 33
0 39 25 45 169 42 115 -2 135 -4 145 -19z m-5132 -22 c4 -6 8 -19 8 -29 0 -14
-6 -18 -26 -15 -31 4 -50 28 -41 52 7 19 45 13 59 -8z m3686 -40 c2 -10 -2
-22 -10 -27 -7 -5 -239 -9 -514 -9 -432 0 -503 2 -514 15 -7 8 -10 22 -6 30 5
13 67 15 523 13 498 -3 518 -4 521 -22z m196 15 c4 -5 3 -16 0 -25 -5 -12 -21
-16 -70 -16 -62 0 -64 1 -64 25 0 24 2 25 64 25 36 0 67 -4 70 -9z m-3759 -84
c26 -22 27 -57 1 -57 -21 0 -56 31 -56 49 0 37 19 40 55 8z m4487 -164 c2 -93
1 -229 -2 -303 -4 -118 -7 -135 -22 -138 -16 -3 -18 7 -18 113 l0 116 -31 11
c-38 13 -37 49 1 58 27 7 29 25 14 98 -4 21 -2 32 5 32 6 0 11 5 11 10 0 6 -7
10 -15 10 -8 0 -15 4 -15 9 0 5 7 11 15 15 11 4 15 22 15 71 0 58 2 65 20 65
18 0 19 -9 22 -167z m-5172 137 c0 -5 -4 -10 -9 -10 -6 0 -13 5 -16 10 -3 6 1
10 9 10 9 0 16 -4 16 -10z m4860 -62 c0 -59 -14 -90 -36 -81 -13 5 -15 17 -9
72 8 77 12 86 31 70 9 -7 14 -31 14 -61z m1015 22 c-5 -8 -11 -8 -17 -2 -6 6
-7 16 -3 22 5 8 11 8 17 2 6 -6 7 -16 3 -22z m-251 -25 c25 -20 46 -40 46 -45
0 -6 14 -10 30 -10 43 0 67 -28 62 -72 -4 -33 -7 -36 -45 -41 -53 -7 -72 9
-29 24 36 12 40 24 15 51 -24 26 -43 22 -55 -13 -7 -19 -16 -29 -27 -27 -23 5
-26 47 -4 65 17 14 17 14 -2 8 -11 -4 -33 -10 -50 -14 -39 -9 -48 -51 -14 -66
46 -21 29 -30 -61 -32 -93 -2 -122 12 -50 23 l40 7 0 47 c0 45 1 46 28 43 32
-4 92 29 92 52 0 8 -12 17 -27 21 -45 10 -50 12 -22 13 15 1 45 -14 73 -34z
m-4644 10 c0 -9 -9 -15 -25 -15 -24 0 -32 10 -18 23 12 13 43 7 43 -8z m1510
-49 c8 -36 8 -37 -13 -23 -34 22 -43 43 -27 62 17 20 29 8 40 -39z m-1682 14
c22 -28 22 -29 3 -39 -15 -8 -24 -5 -45 16 -14 14 -26 32 -26 39 0 25 44 14
68 -16z m2462 11 c0 -23 -28 -54 -41 -46 -10 7 -12 48 -2 58 14 15 43 7 43
-12z m-3428 -14 c10 -11 13 -127 12 -603 0 -324 -4 -597 -9 -607 -20 -46 -36
-47 -535 -47 -411 0 -471 2 -476 15 -4 8 -1 22 6 30 10 13 81 15 474 17 l461
3 3 590 c2 541 3 591 19 603 21 15 28 15 45 -1z m712 -3 c20 -19 20 -33 2 -40
-22 -8 -56 14 -56 36 0 25 32 27 54 4z m5339 -14 c5 -19 -17 -60 -27 -50 -8 9
-15 58 -9 64 13 12 31 5 36 -14z m-5883 -39 c0 -13 -26 -32 -33 -24 -14 13 -6
33 13 33 11 0 20 -4 20 -9z m651 -28 c31 -19 33 -30 6 -47 -22 -14 -61 22 -51
47 8 21 9 21 45 0z m4437 -10 l14 -23 -81 0 c-79 0 -121 10 -121 30 0 12 35
18 109 16 54 -1 66 -4 79 -23z m942 -34 c0 -5 -37 -9 -82 -9 -96 0 -96 13 0
20 71 6 82 4 82 -11z m-200 -9 c0 -5 -11 -10 -24 -10 -14 0 -28 5 -31 10 -4 6
7 10 24 10 17 0 31 -4 31 -10z m-4107 -58 c37 -20 88 -56 114 -79 25 -24 48
-42 50 -40 1 2 -11 36 -28 76 -17 40 -28 75 -25 78 19 19 164 -71 219 -136 15
-19 30 -32 32 -29 2 2 -3 32 -12 66 -9 35 -13 66 -9 69 23 23 161 -108 205
-195 17 -34 34 -62 37 -62 6 0 -2 98 -13 153 -8 38 10 34 53 -10 39 -41 74
-105 93 -168 7 -22 15 -47 18 -55 3 -8 12 14 19 49 8 36 16 67 19 69 16 17 90
-129 105 -207 21 -110 22 -111 35 -56 l11 50 12 -78 c15 -101 15 -131 -3 -215
-20 -95 -50 -171 -82 -210 l-28 -34 -49 17 c-67 23 -207 98 -281 150 -97 68
-184 175 -249 303 -15 30 -29 52 -31 50 -6 -6 40 -177 59 -223 8 -19 13 -35
10 -35 -2 0 -31 13 -63 29 -67 34 -128 79 -228 168 -40 36 -73 62 -73 59 0 -4
18 -35 40 -70 22 -35 40 -66 40 -69 0 -3 -48 10 -107 29 -60 18 -144 41 -188
49 -44 9 -99 21 -122 26 -108 24 -88 5 47 -45 218 -80 271 -102 445 -187 286
-139 489 -295 559 -429 l29 -55 -22 -44 c-43 -83 -149 -179 -261 -236 -68 -35
-180 -77 -180 -68 0 3 12 26 26 50 27 47 26 67 -3 40 -35 -30 -233 -107 -233
-90 0 3 14 28 31 55 16 28 29 52 27 53 -2 2 -36 -13 -77 -33 -58 -29 -88 -37
-142 -40 -41 -3 -69 0 -69 6 0 5 17 21 38 36 73 50 122 117 65 88 -25 -13
-153 -23 -153 -13 0 5 15 19 33 30 l32 21 -45 -7 c-61 -11 -179 -8 -191 4 -6
6 17 28 68 62 l78 52 -75 -4 c-81 -5 -150 1 -150 12 0 4 14 15 30 24 38 23 39
40 3 30 -42 -11 -97 -7 -132 8 -17 8 -31 17 -31 20 0 9 114 59 134 59 9 0 16
4 16 9 0 4 -28 11 -61 14 -62 5 -108 27 -58 27 13 0 31 5 39 10 11 7 6 10 -21
10 -47 0 -117 24 -153 53 l-28 23 73 29 c94 37 100 42 53 51 -59 10 -156 58
-187 91 l-28 30 38 6 c21 4 61 7 88 7 l50 0 -54 28 c-53 28 -143 109 -163 146
-11 20 -5 20 97 -1 29 -5 29 -5 -21 49 -41 45 -114 168 -114 192 0 10 54 7 89
-5 43 -15 46 -8 15 27 -47 53 -105 147 -95 157 5 5 44 11 88 14 73 5 132 -4
209 -34 13 -5 11 2 -7 38 -45 84 -45 83 6 76 43 -6 126 -44 193 -88 17 -11 32
-18 32 -14 0 12 -32 70 -58 104 l-25 34 49 -8 c55 -8 126 -41 197 -91 26 -19
47 -30 47 -24 0 5 -18 39 -41 76 -22 36 -38 68 -35 71 19 19 140 -34 214 -94
50 -41 52 -31 12 49 -16 32 -30 61 -30 64 0 10 44 -8 113 -44z m2287 44 c0 -2
-14 -34 -30 -72 -33 -72 -33 -87 -2 -56 38 38 108 80 164 98 32 9 60 15 63 12
3 -3 -13 -38 -35 -78 -22 -40 -40 -75 -40 -77 0 -2 22 14 50 36 53 42 133 76
201 87 l40 7 -40 -63 c-46 -71 -51 -90 -18 -67 86 61 223 115 242 95 4 -3 -5
-28 -19 -54 -14 -26 -24 -49 -22 -51 2 -2 29 3 62 12 32 8 83 15 114 15 54 0
130 -16 130 -27 0 -11 -89 -139 -109 -157 -31 -28 -25 -37 14 -20 19 7 46 14
61 14 23 0 25 -3 20 -26 -14 -53 -50 -117 -97 -168 l-48 -52 61 4 c56 4 59 3
50 -14 -19 -35 -96 -103 -150 -132 l-53 -29 75 -6 c41 -3 80 -8 85 -12 28 -17
-121 -107 -197 -120 -24 -4 -40 -11 -35 -15 4 -5 41 -22 82 -38 l74 -29 -29
-20 c-39 -27 -109 -53 -142 -53 -15 0 -34 -5 -42 -10 -11 -7 -3 -10 30 -10
l44 0 -24 -17 c-14 -10 -43 -18 -67 -18 -49 0 -45 -5 18 -29 25 -9 54 -23 65
-31 19 -14 19 -14 -1 -28 -26 -20 -85 -29 -137 -21 l-43 6 32 -23 c18 -13 33
-27 33 -31 0 -13 -105 -19 -163 -10 -32 5 -55 6 -50 2 4 -4 36 -28 71 -54 34
-26 62 -51 62 -56 0 -15 -68 -23 -139 -17 -65 6 -66 6 -43 -13 12 -10 22 -21
22 -25 0 -12 -140 1 -153 14 -6 6 -17 11 -25 11 -18 0 38 -66 85 -99 18 -13
33 -28 33 -34 0 -5 -28 -8 -67 -5 -68 4 -125 25 -191 68 -29 20 -32 20 -26 4
4 -11 18 -38 32 -62 13 -24 22 -45 19 -48 -5 -5 -125 33 -142 45 -5 4 -37 23
-69 41 l-60 34 24 -40 c13 -21 31 -50 39 -63 15 -23 14 -23 -9 -16 -182 55
-352 174 -424 298 l-28 46 33 61 c56 106 252 272 440 373 156 83 456 213 624
268 39 13 62 25 53 27 -39 8 -317 -57 -446 -104 -24 -9 -46 -14 -49 -11 -2 3
14 33 37 67 23 34 40 63 38 65 -2 2 -41 -30 -88 -70 -79 -69 -248 -180 -258
-171 -2 3 5 31 16 63 28 80 54 184 48 190 -2 3 -19 -24 -37 -58 -94 -188 -212
-299 -423 -400 -137 -65 -152 -66 -188 -9 -50 82 -80 185 -82 285 0 50 3 113
8 140 l9 50 12 -45 c13 -50 12 -53 35 65 13 63 60 163 90 190 17 15 19 14 29
-35 6 -28 11 -58 11 -65 0 -26 17 -16 23 13 14 67 51 145 93 192 25 27 50 50
55 50 5 0 6 -40 3 -92 l-5 -93 30 61 c17 33 49 82 72 107 40 47 125 105 135
94 3 -3 1 -29 -5 -57 -6 -28 -11 -61 -11 -73 1 -21 2 -20 15 5 30 54 142 133
217 151 l27 7 -24 -49 c-14 -27 -28 -64 -31 -83 l-6 -33 28 31 c41 44 127 103
182 125 48 19 62 22 62 15z m-3985 -48 c3 -13 4 -273 2 -578 -3 -446 -6 -561
-17 -583 -28 -58 -14 -57 -680 -57 -597 0 -610 0 -610 19 0 11 5 23 10 26 6 4
274 8 597 10 420 2 588 6 597 15 8 8 12 171 14 578 1 312 4 573 7 580 2 6 20
12 39 12 29 0 37 -4 41 -22z m5863 -92 c3 -104 -6 -144 -29 -130 -5 3 -9 59
-9 125 0 109 2 120 18 117 15 -3 17 -18 20 -112z m-323 90 c11 -7 33 -16 48
-20 54 -13 56 -86 2 -86 -27 0 -41 15 -50 53 -8 30 -12 31 -49 17 -30 -11 -35
-44 -9 -72 9 -10 12 -18 6 -18 -31 0 -66 79 -52 118 7 17 16 22 46 22 21 0 47
-6 58 -14z m173 8 c18 -5 22 -13 22 -46 0 -42 -14 -78 -31 -78 -6 0 -6 8 1 21
13 24 -2 49 -30 49 -21 0 -54 35 -45 49 7 12 47 14 83 5z m-5197 -25 c35 -25
30 -39 -15 -39 -37 0 -61 21 -52 45 8 21 33 19 67 -6z m5639 -20 c0 -5 -4 -9
-10 -9 -5 0 -10 7 -10 16 0 8 5 12 10 9 6 -3 10 -10 10 -16z m-142 -1 c-3 -7
-11 -13 -18 -13 -7 0 -15 6 -17 13 -3 7 4 12 17 12 13 0 20 -5 18 -12z m-6398
-13 c0 -8 -7 -15 -15 -15 -16 0 -20 12 -8 23 11 12 23 8 23 -8z m6400 -608 c0
-294 3 -777 7 -1075 l6 -542 -41 0 -42 0 0 1068 c0 588 3 1072 7 1075 3 4 19
7 35 7 l28 0 0 -533z m-400 503 c-19 -12 -40 -13 -40 -1 0 9 40 20 50 13 2 -2
-2 -7 -10 -12z m565 -15 c0 -13 -8 -21 -23 -23 -26 -4 -42 25 -21 39 22 14 44
6 44 -16z m153 -20 c18 -56 13 -1018 -6 -1037 -10 -10 -15 -10 -22 2 -6 9 -10
232 -10 548 0 423 3 533 13 530 6 -3 18 -22 25 -43z m-6683 -15 c19 -37 19
-37 -9 -55 -22 -15 -28 -15 -61 -1 -26 11 -70 16 -141 16 -96 0 -130 9 -102
26 6 4 53 6 104 5 77 -2 97 1 125 18 46 28 66 26 84 -9z m5769 -21 c5 -4 6
-14 3 -22 -4 -10 -32 -16 -99 -20 -114 -8 -138 -3 -138 29 0 20 6 23 43 26 63
4 181 -3 191 -13z m-4921 -13 c8 -19 -1 -26 -35 -26 -21 0 -28 5 -28 20 0 15
7 20 29 20 16 0 31 -6 34 -14z m5170 -318 c4 -178 7 -637 7 -1020 l0 -697 -35
-7 c-20 -3 -39 -3 -43 1 -8 8 -14 1978 -5 2018 4 23 10 27 38 27 l32 0 6 -322z
m505 260 c-7 -19 -38 -22 -38 -4 0 10 9 16 21 16 12 0 19 -5 17 -12z m20 -130
c3 -22 -2 -29 -22 -34 -32 -8 -46 1 -46 30 0 30 9 38 40 34 19 -2 26 -10 28
-30z m-6582 11 c17 -28 -19 -34 -197 -34 -148 0 -181 3 -189 15 -6 9 -5 17 3
22 19 12 375 10 383 -3z m5524 -87 c3 -50 8 -93 12 -97 3 -4 36 -7 72 -8 72
-2 98 -16 76 -42 -9 -11 -32 -15 -86 -15 -40 0 -85 -5 -98 -12 -22 -9 -29 -8
-46 7 -26 23 -25 27 6 65 24 28 26 37 21 92 -6 66 5 112 26 106 8 -3 14 -36
17 -96z m180 58 l0 -31 -57 3 c-55 3 -58 4 -61 31 -3 27 -3 27 57 27 l61 0 0
-30z m158 21 c24 -15 10 -56 -19 -59 -34 -4 -54 20 -39 47 11 22 35 27 58 12z
m-4980 -28 c3 -20 -1 -23 -27 -23 -33 0 -46 13 -37 36 9 25 60 14 64 -13z
m5360 -858 c2 -473 0 -883 -3 -911 -6 -48 -8 -52 -37 -58 -17 -3 -34 -3 -37 0
-9 9 -14 1440 -6 1652 l7 183 37 -3 36 -3 3 -860z m-6490 730 c2 -17 -5 -23
-40 -30 -33 -8 -44 -15 -46 -32 -3 -20 1 -23 30 -23 18 0 43 -7 55 -15 47 -33
48 -132 2 -181 -32 -34 -106 -34 -139 1 -19 20 -21 27 -10 40 16 19 44 19 60
1 12 -15 39 -11 52 8 4 6 8 28 8 49 l0 37 -54 0 c-63 0 -72 13 -62 85 7 47 28
71 66 78 49 9 75 3 78 -18z m6814 -392 c-1 -229 -4 -419 -7 -421 -2 -2 -11 -2
-20 1 -13 6 -15 56 -15 415 0 225 3 412 7 415 3 4 13 7 22 7 14 0 16 -42 13
-417z m349 378 c21 -16 22 -22 11 -45 -17 -37 -69 -37 -78 -1 -4 18 -1 32 11
45 22 25 27 25 56 1z m-1031 -6 c10 -12 11 -177 5 -777 -7 -795 -9 -880 -20
-897 -10 -17 -52 -13 -59 5 -3 9 -6 388 -6 844 0 653 3 829 13 833 24 10 55 7
67 -8z m-4976 -34 c17 -18 16 -19 -13 -26 -50 -11 -90 13 -64 38 13 14 60 6
77 -12z m-846 -23 c-3 -9 -31 -13 -93 -13 -62 0 -90 4 -92 13 -4 9 19 12 92
12 73 0 96 -3 93 -12z m7094 0 c46 -38 22 -75 -77 -117 -73 -31 -84 -30 -106
11 -15 29 5 53 73 87 67 34 86 37 110 19z m-7642 -7 c0 -11 -48 -24 -60 -16
-21 13 -8 25 25 25 19 0 35 -4 35 -9z m7408 -142 c4 -49 -18 -68 -53 -45 -44
29 -26 90 25 84 21 -3 26 -9 28 -39z m-1256 -10 c25 -14 23 -45 -4 -53 -46
-12 -263 -7 -282 7 -16 12 -16 14 -3 26 9 7 28 16 44 21 39 11 223 11 245 -1z
m-6165 -12 c3 -3 3 -13 -1 -22 -9 -24 -169 -18 -174 7 -2 9 5 19 15 22 23 6
152 1 160 -7z m527 -7 c5 -5 -29 -10 -78 -12 -61 -2 -86 0 -86 9 0 6 12 14 28
16 38 6 125 -2 136 -13z m957 1 c13 -11 21 -22 18 -25 -10 -10 -125 -19 -153
-12 -39 10 -31 24 22 40 64 20 86 19 113 -3z m6321 -38 c46 -42 8 -77 -97 -88
-53 -5 -73 -12 -83 -27 -39 -55 -136 -29 -117 32 7 21 85 63 145 78 105 26
128 27 152 5z m-397 -89 c34 -35 -3 -103 -42 -78 -25 16 -29 65 -7 81 23 17
29 16 49 -3z m-1207 -12 c10 -7 12 -140 10 -633 l-3 -624 -35 0 -35 0 -3 624
c-2 650 -3 641 38 641 8 0 21 -4 28 -8z m-4816 -24 c15 -12 17 -69 24 -509 5
-369 4 -501 -5 -517 -11 -21 -54 -31 -65 -14 -2 4 -6 238 -8 520 -3 447 -1
514 12 522 20 13 23 12 42 -2z m4468 -365 c0 -208 3 -394 6 -414 5 -29 2 -41
-15 -58 -21 -21 -48 -19 -63 3 -10 14 -10 830 -1 839 3 4 21 7 40 7 l33 0 0
-377z m-4650 335 c0 -5 -9 -8 -20 -8 -22 0 -28 26 -7 33 12 4 27 -10 27 -25z
m372 -31 c4 -6 6 -234 5 -507 l-2 -495 -23 -3 c-53 -8 -52 -19 -52 518 0 389
3 499 13 503 16 7 50 -3 59 -16z m4462 -19 c7 -32 17 -2334 10 -2340 -2 -3
-22 4 -44 14 l-40 20 -1 337 c0 185 -2 702 -5 1150 -3 607 -2 817 7 827 6 8
24 14 40 14 22 0 30 -5 33 -22z m1818 -25 c10 -9 18 -23 18 -32 0 -36 -18 -44
-104 -51 -77 -6 -88 -9 -106 -33 -21 -27 -70 -38 -70 -16 0 5 -10 9 -22 7 -18
-2 -24 3 -26 20 -2 13 2 30 9 38 21 26 88 55 158 69 91 18 121 18 143 -2z
m-6803 -17 c8 -9 10 -164 9 -556 l-3 -544 -28 -7 c-60 -16 -57 -47 -57 555 0
304 3 556 7 559 11 12 60 7 72 -7z m6369 -28 c29 -29 -7 -86 -47 -73 -26 8
-38 50 -21 70 15 18 51 20 68 3z m-6201 -26 c13 -8 27 -923 15 -1002 -6 -41
-10 -45 -38 -48 -26 -3 -33 1 -38 20 -8 31 -8 1023 1 1031 9 9 45 9 60 -1z
m4456 -167 c-4 -117 -2 -699 4 -887 3 -120 3 -218 -1 -218 -3 0 -24 12 -46 26
-27 18 -39 32 -36 43 30 96 32 183 11 323 -11 76 -13 166 -9 410 2 172 7 321
10 331 4 13 14 17 37 15 30 -3 32 -5 30 -43z m-3934 11 c16 -20 9 -641 -8
-711 -16 -67 -17 -217 -2 -289 13 -58 12 -60 -10 -77 -13 -10 -27 -19 -31 -19
-4 0 -7 232 -8 516 0 284 -3 527 -6 540 -11 43 38 73 65 40z m-889 -21 c0 -9
-7 -18 -16 -22 -18 -7 -39 11 -30 26 11 17 46 13 46 -4z m-725 -15 c0 -19 -35
-26 -46 -9 -4 7 -5 17 -2 22 8 14 48 3 48 -13z m193 3 c-4 -20 -27 -27 -47
-14 -19 12 -4 31 25 31 19 0 25 -5 22 -17z m177 -3 c0 -19 -35 -26 -46 -9 -4
7 -5 17 -2 22 8 14 48 3 48 -13z m183 -2 c3 -14 -3 -18 -27 -18 -25 0 -31 4
-31 21 0 16 5 20 27 17 17 -2 29 -10 31 -20z m-696 -14 c10 -21 9 -27 -3 -35
-8 -5 -119 -8 -253 -6 -210 2 -240 4 -249 19 -8 12 -7 21 2 32 12 14 47 16
252 16 l239 0 12 -26z m8071 6 c4 0 7 -7 7 -15 0 -13 -58 -15 -465 -15 -396 0
-465 2 -465 14 0 8 8 16 18 19 12 3 761 1 905 -3z m-4360 -17 c15 -3 27 -9 27
-13 0 -4 -44 -30 -97 -58 -54 -28 -127 -71 -163 -96 -36 -25 -102 -70 -147
-100 -45 -30 -84 -64 -88 -76 -3 -11 -13 -20 -21 -20 -10 0 -14 13 -14 48 0
126 138 271 301 317 51 14 125 13 202 -2z m1807 -210 l0 -198 -35 40 -34 40
-1 124 0 125 33 32 c17 17 33 32 35 33 1 0 2 -88 2 -196z m-3608 158 c16 -13
18 -33 18 -138 0 -122 0 -123 -30 -155 l-29 -33 -2 45 c-5 168 -6 277 -2 293
5 18 13 16 45 -12z m-1027 -401 l0 -375 -37 -3 -38 -3 -2 243 c-4 296 -1 486
6 505 4 9 17 13 38 11 l33 -3 0 -375z m-552 357 c3 -8 6 -171 6 -364 2 -383 2
-378 -56 -371 l-28 3 -3 364 c-2 285 1 366 10 373 21 12 65 9 71 -5z m195
-345 c1 -217 -2 -360 -8 -371 -11 -22 -56 -33 -69 -17 -9 11 -15 332 -12 609
l1 138 43 -3 42 -3 3 -353z m-913 308 c35 -38 -1 -63 -59 -40 -30 11 -34 34
-8 49 26 16 47 13 67 -9z m180 10 c14 -22 14 -55 0 -77 -19 -28 -60 -30 -75
-4 -11 22 -14 74 -3 84 10 11 71 8 78 -3z m177 -7 c34 -31 10 -93 -37 -93 -30
0 -45 19 -45 55 0 53 43 73 82 38z m8191 -2 c7 -7 6 -15 -3 -26 -11 -13 -71
-15 -519 -13 l-506 3 -3 22 c-2 16 3 22 20 25 60 8 1002 -2 1011 -11z m-6093
-17 c11 -13 10 -19 -8 -37 l-22 -21 0 37 c0 40 10 46 30 21z m3280 -13 c0 -37
-11 -44 -38 -25 -28 19 -28 28 1 42 33 16 37 15 37 -17z m-4670 -11 c0 -5 -7
-10 -15 -10 -8 0 -15 5 -15 10 0 6 7 10 15 10 8 0 15 -4 15 -10z m-550 -30 c0
-5 -4 -10 -10 -10 -5 0 -10 5 -10 10 0 6 5 10 10 10 6 0 10 -4 10 -10z m7145
-71 c7 -10 10 -597 4 -604 -2 -2 -20 -5 -39 -7 l-35 -3 -3 304 c-2 237 1 306
10 313 18 11 56 10 63 -3z m831 -24 c10 -15 13 -32 9 -42 -5 -10 -9 -24 -11
-32 -1 -8 -8 -18 -16 -22 -9 -6 -13 -37 -13 -106 0 -124 7 -147 45 -163 37
-15 38 -33 5 -48 -39 -18 -83 -14 -105 8 -19 19 -20 33 -20 203 0 186 4 207
40 220 31 11 50 6 66 -18z m-7418 -8 c7 -9 12 -103 14 -267 l3 -253 -28 -10
c-58 -19 -57 -21 -57 262 0 237 2 261 18 270 23 14 38 13 50 -2z m-712 -38
c17 -18 17 -23 4 -46 -32 -56 -75 -55 -95 2 -8 23 -6 30 14 46 30 25 53 24 77
-2z m-469 -5 c2 -7 -8 -9 -27 -6 -16 2 -27 8 -24 14 8 12 46 6 51 -8z m291
-10 c2 -14 -7 -29 -24 -43 -25 -20 -28 -20 -46 -5 -36 34 -14 77 37 72 22 -2
31 -9 33 -24z m-188 -4 c0 -5 -14 -10 -31 -10 -17 0 -28 4 -24 10 3 6 17 10
31 10 13 0 24 -4 24 -10z m8280 -3 c31 -15 38 -58 14 -78 -23 -19 -194 -20
-217 0 -20 16 -22 54 -4 69 27 22 168 29 207 9z m-7760 -1372 c0 -925 -4
-1372 -11 -1399 -6 -21 -26 -54 -44 -74 -28 -31 -37 -35 -52 -26 -30 18 -27
53 9 103 l33 46 3 1180 2 1180 -418 -3 c-271 -2 -427 0 -445 7 -28 11 -36 34
-14 48 6 4 176 9 377 9 201 1 395 2 433 3 l67 1 0 138 c0 76 3 142 7 146 4 4
18 6 30 4 l24 -3 -1 -1360z m2268 1340 c16 -34 8 -48 -53 -95 -71 -55 -123
-112 -181 -199 -26 -39 -51 -71 -55 -71 -30 0 -21 117 15 197 60 129 241 241
274 168z m2697 -15 c77 -53 142 -152 165 -253 18 -80 2 -86 -43 -15 -68 107
-188 233 -239 250 -10 4 -10 10 0 32 11 25 17 28 43 22 16 -3 50 -19 74 -36z
m3164 -24 c34 -36 35 -82 3 -117 -74 -81 -181 -8 -138 94 11 27 23 38 48 45
42 11 61 6 87 -22z m-800 -18 c5 -13 7 -79 6 -148 -1 -69 -3 -160 -4 -203 0
-45 -5 -76 -10 -72 -5 3 -12 1 -16 -5 -3 -5 -17 -10 -31 -10 l-24 0 0 223 c0
123 3 227 7 230 3 4 19 7 35 7 20 0 31 -6 37 -22z m-7671 -75 c-3 -24 -8 -28
-33 -28 -25 0 -30 4 -33 28 -3 25 -1 27 33 27 34 0 36 -2 33 -27z m-203 7 c4
-6 -12 -10 -40 -10 -28 0 -44 4 -40 10 3 6 21 10 40 10 19 0 37 -4 40 -10z
m405 2 c0 -11 -30 -37 -52 -45 -9 -3 -23 2 -32 12 -28 31 -19 41 34 41 28 0
50 -4 50 -8z m5871 -32 c18 -10 19 -25 19 -373 -1 -338 -2 -360 -17 -332 -9
17 -29 46 -44 66 l-29 37 0 300 c0 278 1 301 18 305 28 8 33 7 53 -3z m1247
-166 l2 -162 -37 -4 c-22 -3 -41 0 -45 6 -10 14 -10 310 -1 320 4 4 23 6 43 4
l35 -3 3 -161z m835 141 c2 -11 -146 -20 -170 -11 -8 3 -11 11 -8 16 8 14 174
9 178 -5z m-306 -127 c14 -18 16 -143 3 -168 -8 -14 -21 -20 -45 -20 l-35 0
-2 53 c-4 88 1 130 14 138 19 13 54 11 65 -3z m-6204 -20 c14 -12 16 -49 18
-328 2 -299 1 -318 -20 -377 -12 -35 -26 -98 -32 -140 -17 -125 -29 -111 -29
32 0 72 -3 280 -7 464 -6 317 -5 335 12 348 23 16 37 16 58 1z m187 -207 l-1
-166 -38 -42 -39 -42 -6 37 c-3 20 -6 113 -6 205 0 163 1 168 22 176 11 4 32
6 45 3 l23 -4 0 -167z m1496 148 c64 -12 154 -47 154 -60 0 -4 -5 -11 -11 -14
-5 -4 -14 -18 -19 -31 -8 -21 -16 -24 -57 -24 -107 -1 -250 -54 -351 -129
-108 -79 -163 -147 -237 -290 -42 -80 -54 -96 -74 -96 -30 0 -61 54 -61 106 0
106 86 261 200 359 33 29 58 55 55 58 -9 9 -112 -68 -163 -122 -84 -89 -126
-196 -140 -356 l-8 -95 -18 52 c-21 64 -23 178 -2 245 50 166 240 331 441 381
113 29 196 34 291 16z m1322 -24 c2 -2 -2 -14 -9 -27 -7 -12 -15 -30 -19 -38
-4 -8 -29 -24 -56 -34 -105 -41 -174 -78 -240 -131 -84 -68 -110 -76 -134 -45
-12 16 -23 21 -38 15 -49 -15 -16 80 52 153 85 91 182 124 336 116 58 -4 106
-8 108 -9z m-4478 -55 c0 -5 -22 -10 -49 -10 -28 0 -53 5 -56 10 -4 6 15 10
49 10 31 0 56 -4 56 -10z m-506 -76 c9 -24 7 -177 -3 -193 -10 -16 -131 -27
-185 -17 l-36 7 0 109 0 110 109 0 c90 0 110 -3 115 -16z m324 4 c8 -8 12 -45
12 -100 0 -83 -1 -88 -25 -104 -20 -13 -42 -16 -99 -12 -40 3 -78 8 -84 12
-15 9 -16 170 -2 197 9 17 22 19 98 19 55 0 92 -4 100 -12z m6460 -585 c1
-326 0 -593 -2 -593 -2 0 -19 7 -38 14 l-35 15 -6 152 c-4 84 -7 342 -7 575 0
456 -3 435 55 431 l30 -2 3 -592z m-5900 560 c-3 -25 -7 -28 -46 -31 -32 -2
-44 1 -49 14 -9 23 22 44 65 44 30 0 33 -2 30 -27z m187 -3 c0 -22 -5 -25 -43
-28 -31 -2 -44 1 -48 12 -13 33 4 47 48 44 38 -3 43 -6 43 -28z m184 16 c6 -7
8 -21 5 -30 -10 -25 -97 -19 -102 8 -2 10 2 22 10 27 21 13 74 10 87 -5z m186
-16 c0 -23 -4 -25 -47 -28 -45 -3 -48 -2 -48 22 0 27 16 35 65 33 25 -2 30 -6
30 -27z m183 21 c8 -5 12 -17 10 -27 -3 -15 -12 -19 -48 -19 -36 0 -45 4 -48
19 -5 22 14 36 48 36 14 0 31 -4 38 -9z m-1063 -51 c0 -10 -12 -16 -32 -18
-32 -3 -45 13 -26 32 13 12 58 2 58 -14z m6413 -17 c-3 -31 -22 -38 -74 -28
-24 4 -34 11 -34 24 0 27 9 31 62 31 48 0 49 -1 46 -27z m182 3 c0 -13 -7 -27
-16 -30 -41 -16 -104 2 -104 29 0 18 16 23 73 24 43 1 47 -1 47 -23z m175 -1
c0 -13 -10 -22 -32 -28 -42 -12 -83 -2 -83 22 0 27 10 32 65 29 42 -3 50 -6
50 -23z m172 9 c8 -22 -9 -35 -54 -41 -42 -6 -70 14 -59 42 8 22 104 21 113
-1z m169 1 c9 -24 -15 -45 -51 -45 -45 0 -65 9 -65 29 0 27 9 31 62 31 34 0
50 -4 54 -15z m182 -12 c-3 -24 -8 -29 -37 -31 -49 -5 -81 5 -81 27 0 27 9 31
67 31 53 0 54 -1 51 -27z m190 3 c5 -23 -14 -36 -55 -36 -43 0 -63 9 -63 29 0
27 11 32 65 29 39 -2 51 -7 53 -22z m206 11 c16 -12 16 -14 -2 -30 -28 -26
-125 -20 -130 7 -2 10 2 22 10 27 20 13 102 11 122 -4z m245 4 c8 -5 11 -16 6
-30 -6 -20 -12 -22 -77 -19 -55 2 -73 7 -82 21 -8 14 -8 20 4 27 19 12 130 13
149 1z m245 3 c9 -3 16 -14 16 -24 0 -24 -19 -30 -95 -30 -35 0 -70 3 -79 6
-22 8 -20 41 2 47 26 7 138 8 156 1z m224 -3 c8 -5 12 -17 10 -27 -3 -16 -14
-19 -76 -22 -71 -3 -72 -2 -72 22 0 13 6 27 13 29 20 9 111 7 125 -2z m-7130
-336 c1 -181 0 -340 -3 -352 -3 -14 -18 -26 -41 -33 -19 -7 -37 -10 -39 -8 -7
7 -7 707 0 718 4 6 23 10 43 8 l37 -3 3 -330z m-519 200 c55 -47 51 -160 -6
-205 -24 -19 -40 -20 -225 -20 -255 0 -278 10 -280 118 -1 55 23 109 55 122
12 5 113 9 224 9 l201 1 31 -25z m136 -25 c3 -5 -1 -10 -9 -10 -9 0 -16 5 -16
10 0 6 4 10 9 10 6 0 13 -4 16 -10z m7502 -7 c4 -10 -90 -13 -446 -13 -247 0
-452 4 -455 9 -3 4 -3 11 0 14 4 3 207 5 452 4 346 -2 446 -5 449 -14z m-1274
-34 c6 -9 7 -24 4 -33 -6 -14 -31 -16 -210 -16 -222 0 -242 5 -211 48 15 22
19 22 211 20 167 -3 197 -5 206 -19z m145 9 c17 -17 15 -53 -3 -68 -12 -10
-21 -10 -40 -2 -31 14 -32 46 -3 66 27 19 31 19 46 4z m-688 -58 c0 -5 -4 -10
-10 -10 -5 0 -10 5 -10 10 0 6 5 10 10 10 6 0 10 -4 10 -10z m-7172 -103 c2
-77 6 -97 17 -97 22 0 19 -49 -2 -58 -10 -4 -18 -16 -18 -27 0 -14 -8 -21 -27
-23 -23 -3 -28 1 -28 17 0 12 6 21 13 21 6 0 4 6 -7 11 -11 7 -37 9 -63 5 -59
-8 -93 1 -93 25 0 10 36 63 79 117 114 144 125 144 129 9z m253 81 c1 -7 0
-25 -1 -40 -1 -27 1 -28 42 -28 70 0 83 -16 83 -100 0 -52 -4 -73 -15 -80 -24
-16 -207 -13 -213 3 -10 27 10 36 88 39 l80 3 0 35 0 35 -65 5 -65 5 -3 49
c-2 36 1 53 15 67 21 21 53 25 54 7z m2283 -34 c9 -8 16 -17 16 -20 0 -2 -24
-29 -54 -58 -63 -64 -129 -188 -147 -276 -6 -33 -15 -57 -20 -55 -17 11 -20
111 -5 178 20 87 47 138 103 198 48 52 79 61 107 33z m3544 -19 c61 -55 133
-215 131 -295 0 -19 -4 -14 -18 21 -28 71 -87 154 -152 212 -56 51 -58 54 -43
75 21 30 38 28 82 -13z m-5488 -6 c0 -19 -4 -21 -41 -16 -22 3 -43 8 -46 10
-13 13 12 27 48 27 33 0 39 -3 39 -21z m6408 -433 l2 -436 -45 22 -45 22 0
417 0 418 23 3 c12 2 31 1 42 -3 20 -6 20 -16 23 -443z m1640 438 c46 -32 64
-97 41 -148 -10 -20 -9 -30 5 -50 30 -47 19 -113 -27 -163 -25 -28 -101 -31
-152 -7 -55 26 -82 116 -49 162 12 18 13 29 5 55 -18 56 -8 117 23 143 33 29
118 33 154 8z m-318 -18 c0 -19 -6 -24 -37 -30 -21 -3 -53 -6 -70 -6 -30 0
-33 -3 -33 -30 0 -29 1 -30 48 -30 63 0 88 -19 101 -77 14 -69 -2 -135 -41
-168 -27 -23 -38 -26 -97 -23 -66 3 -66 3 -69 34 l-3 31 62 6 c68 6 79 15 79
67 0 53 -9 59 -85 62 -48 2 -70 7 -69 16 1 6 2 48 3 92 l1 80 105 0 c104 0
105 0 105 -24z m-920 -35 c0 -26 -21 -41 -56 -41 -45 0 -62 44 -23 58 33 13
79 2 79 -17z m307 3 c3 -8 1 -20 -5 -26 -27 -27 -275 -20 -286 9 -3 8 -4 19 0
24 3 5 68 9 145 9 118 0 141 -2 146 -16z m154 -10 c17 -21 0 -49 -32 -49 -24
0 -36 23 -25 51 7 19 40 18 57 -2z m-683 -452 l2 -432 -27 6 c-66 16 -63 -5
-63 444 0 224 3 410 7 414 4 4 23 6 43 4 l35 -3 3 -433z m-5472 283 c2 -196 0
-210 -41 -229 -18 -9 -35 -16 -38 -16 -2 0 -7 84 -11 187 -8 206 -8 205 54
201 l35 -3 1 -140z m7180 115 c8 -8 19 -7 38 1 20 10 29 10 38 1 19 -19 -1
-29 -69 -36 -63 -7 -80 0 -69 29 6 17 47 20 62 5z m-7348 -190 c4 -190 1 -206
-44 -220 -19 -7 -37 -10 -39 -8 -7 7 -18 346 -12 362 5 13 17 16 49 14 l43 -3
3 -145z m-194 122 c7 -11 -6 -27 -26 -35 -20 -7 -32 7 -24 28 6 16 41 21 50 7z
m-329 -22 c0 -9 -11 -16 -27 -18 -23 -3 -28 1 -28 18 0 17 5 21 28 18 16 -2
27 -9 27 -18z m6329 14 c14 -6 16 -69 16 -620 0 -338 -2 -614 -5 -614 -3 0
-21 6 -39 14 l-33 14 -6 158 c-4 88 -7 358 -7 601 0 344 3 442 13 446 18 8 43
8 61 1z m-6504 -18 c0 -8 -5 -18 -11 -22 -14 -8 -33 11 -25 25 10 16 36 13 36
-3z m-253 -22 c2 -6 -4 -14 -13 -18 -22 -8 -86 13 -78 25 8 13 86 7 91 -7z
m7264 6 c28 -15 24 -56 -7 -77 -25 -16 -27 -16 -40 2 -18 25 -18 50 2 69 18
19 20 19 45 6z m-173 -28 c2 -7 -3 -12 -12 -12 -9 0 -16 7 -16 16 0 17 22 14
28 -4z m1208 -2 c8 -8 19 -8 38 0 40 15 48 13 44 -12 -3 -21 -9 -23 -80 -26
-71 -3 -78 -1 -78 16 0 10 3 22 7 25 10 11 58 8 69 -3z m-8534 -72 c0 -18 2
-51 3 -73 1 -22 5 -63 9 -92 7 -46 6 -52 -13 -58 -11 -3 -29 -1 -40 4 -11 6
-54 11 -95 11 -96 0 -97 9 -18 106 114 141 150 165 154 102z m-462 7 c0 -11
12 -15 49 -15 27 0 61 -4 75 -10 25 -9 26 -13 26 -82 0 -40 -4 -79 -9 -87 -11
-18 -72 -27 -148 -23 -53 3 -63 7 -63 22 0 22 27 30 103 30 52 0 57 2 57 23 0
12 3 32 6 45 6 21 4 22 -73 22 -81 0 -103 9 -103 41 0 21 36 49 62 49 10 0 18
-7 18 -15z m1468 -126 l3 -127 -42 -16 c-23 -9 -43 -16 -44 -14 -1 2 -5 62 -7
135 -6 147 -3 156 52 151 l35 -3 3 -126z m6160 123 c10 -7 12 -132 10 -594
l-3 -586 -36 15 -36 14 -8 566 c-7 539 -6 567 11 580 20 15 43 17 62 5z
m-6324 -67 c0 -22 -1 -85 -2 -141 l-2 -100 -36 -18 c-21 -9 -40 -13 -45 -9 -6
6 -15 277 -10 306 0 4 22 7 49 5 l47 -3 -1 -40z m-179 21 c16 -12 17 -19 8
-77 -6 -35 -10 -106 -8 -157 l2 -93 -29 -15 c-56 -29 -58 -22 -58 170 0 130 3
176 13 179 23 10 53 7 72 -7z m-175 -12 c0 -9 -7 -14 -17 -12 -25 5 -28 28 -4
28 12 0 21 -6 21 -16z m6864 -619 c-1 -341 -2 -629 -3 -640 l-2 -20 -11 20
c-6 11 -24 35 -40 53 l-28 33 0 584 c0 457 3 584 13 589 6 3 26 4 42 3 l30 -2
-1 -620z m1264 591 c3 -14 -7 -16 -71 -16 -78 0 -93 5 -76 26 17 21 143 12
147 -10z m-4682 -27 c44 -11 54 -22 33 -34 -5 -4 -14 -17 -19 -29 -6 -17 -24
-27 -72 -40 -274 -74 -477 -322 -495 -604 -3 -51 -9 -95 -13 -97 -13 -8 -59
150 -66 222 -23 251 146 490 406 574 63 21 161 24 226 8z m3592 -736 l2 -741
-31 -7 c-17 -4 -35 -3 -39 1 -10 11 -25 1467 -15 1483 4 7 23 11 43 9 l37 -3
3 -742z m-5898 694 c0 -13 7 -46 15 -73 16 -54 15 -56 -47 -76 -34 -10 -39 -9
-56 13 -41 49 -132 18 -132 -46 0 -12 -6 -27 -12 -33 -12 -9 -218 -87 -481
-182 -64 -24 -116 -45 -113 -47 2 -2 68 -32 147 -67 79 -35 145 -68 147 -74 1
-5 -10 -13 -26 -16 -27 -6 -135 30 -349 118 -35 14 -65 26 -68 26 -3 0 -5 -97
-5 -215 0 -165 -3 -215 -12 -215 -7 0 -32 9 -55 20 l-43 19 0 230 0 230 24 19
c14 10 67 34 118 52 51 18 152 55 223 83 72 27 195 73 275 103 80 29 206 75
280 103 156 58 170 60 170 28z m-1392 -39 c3 -14 -4 -18 -31 -18 -34 0 -64 20
-50 34 4 4 23 6 43 4 24 -2 36 -9 38 -20z m8417 -39 c6 -6 6 -16 -1 -27 -10
-16 -47 -17 -452 -20 l-441 -2 -6 21 c-4 12 -3 25 2 30 19 19 877 17 898 -2z
m-7131 -91 c16 -46 -39 -89 -72 -56 -16 16 -15 61 0 76 22 22 62 10 72 -20z
m1132 -3 c17 -13 14 -14 -31 -8 -72 8 -157 -13 -215 -52 -28 -19 -50 -30 -50
-26 0 15 51 60 93 80 52 26 172 29 203 6z m2654 5 c0 -5 -19 -10 -43 -10 -52
0 -139 -24 -187 -52 l-35 -20 20 22 c35 40 113 70 183 70 35 0 62 -4 62 -10z
m-5665 -20 c3 -6 -6 -11 -22 -12 -15 -1 -44 -3 -63 -4 -52 -5 -121 6 -115 17
8 12 192 12 200 -1z m199 1 c3 -5 -12 -11 -33 -13 -46 -4 -63 0 -55 13 7 12
81 12 88 0z m211 -1 c4 -6 -13 -10 -45 -10 -32 0 -49 4 -45 10 3 6 24 10 45
10 21 0 42 -4 45 -10z m180 1 c3 -5 2 -12 -2 -14 -13 -7 -73 4 -73 14 0 12 67
12 75 0z m8389 -37 c50 -19 -36 -24 -434 -24 -394 0 -484 5 -438 23 18 8 853
8 872 1z m-6814 -74 c0 -15 -7 -20 -24 -20 -27 0 -41 14 -31 30 3 6 17 10 31
10 17 0 24 -5 24 -20z m-2259 -86 l69 -57 63 29 c87 39 179 40 261 1 32 -15
64 -27 72 -27 7 0 41 25 76 55 67 59 98 68 121 34 22 -30 13 -47 -62 -125 -67
-71 -67 -71 -55 -105 17 -47 17 -166 -1 -225 l-14 -49 38 -40 c53 -55 101
-124 101 -146 0 -21 -32 -33 -65 -25 -22 6 -141 96 -157 120 -4 5 -34 0 -77
-14 -78 -25 -138 -23 -212 7 l-39 15 -43 -42 c-52 -49 -104 -85 -134 -92 -26
-7 -63 17 -63 40 0 15 67 106 122 166 22 24 22 23 3 76 -17 50 -20 148 -4 204
9 34 8 40 -11 53 -38 26 -120 134 -120 157 0 27 18 46 43 46 10 0 49 -25 88
-56z m2439 20 c0 -21 -4 -25 -22 -22 -15 2 -24 11 -26 26 -3 18 1 22 22 22 21
0 26 -5 26 -26z m6210 -95 c0 -100 -2 -110 -17 -107 -15 3 -18 16 -21 83 -2
62 -7 83 -20 93 -16 12 -16 14 2 28 11 8 28 14 38 14 16 0 18 -11 18 -111z
m-6560 80 c8 -15 8 -29 1 -51 -6 -17 -11 -88 -11 -158 l0 -127 -31 5 c-21 3
-33 12 -40 29 -14 37 -12 296 3 311 20 20 66 15 78 -9z m6388 -6 c8 -12 11
-31 7 -54 -4 -22 -2 -40 4 -44 36 -21 -21 -95 -73 -95 -33 0 -56 15 -56 37 0
9 12 11 45 6 43 -5 45 -5 45 20 0 16 -8 31 -20 37 -23 12 -27 45 -6 53 7 3 19
0 25 -6 6 -6 11 -7 11 -1 0 20 -25 34 -62 34 -26 0 -38 4 -38 14 0 31 95 29
118 -1z m-1847 1 c104 -30 447 -144 495 -165 l49 -21 -40 -20 c-39 -21 -234
-107 -516 -228 -116 -51 -140 -58 -170 -51 -18 5 -151 46 -294 91 -143 45
-270 85 -282 89 -13 3 -23 10 -24 16 0 5 70 37 158 72 87 34 250 100 363 147
113 47 205 86 206 86 0 0 25 -7 55 -16z m2273 2 c-3 -8 -18 -18 -34 -21 -35
-8 -46 -20 -55 -62 -8 -42 2 -73 24 -73 43 0 56 54 16 72 -29 13 -24 28 10 28
47 0 71 -69 38 -109 -46 -55 -120 -29 -130 46 -11 86 21 133 92 133 35 0 43
-3 39 -14z m-6638 -45 c8 -15 9 -34 3 -55 -5 -17 -9 -93 -9 -168 0 -84 -4
-139 -10 -143 -6 -4 -21 0 -34 9 -23 14 -24 20 -28 188 -4 149 -3 175 11 186
23 18 54 11 67 -17z m359 -26 c0 -22 -31 -33 -48 -16 -7 7 -6 15 3 26 17 21
45 15 45 -10z m-177 -32 c10 -22 0 -378 -11 -389 -5 -5 -20 -2 -35 7 l-27 15
-5 174 c-6 190 -2 210 46 210 13 0 27 -8 32 -17z m360 -25 c16 -16 15 -53 -2
-67 -18 -15 -66 13 -66 38 0 21 19 41 40 41 9 0 21 -5 28 -12z m-181 -50 c6
-8 8 -86 4 -204 l-6 -190 -31 8 -32 8 -6 148 c-4 81 -9 159 -11 175 -8 47 55
89 82 55z m371 -44 c2 -11 -6 -29 -18 -39 -19 -17 -22 -17 -37 -3 -10 11 -13
25 -9 43 5 21 12 26 34 23 18 -2 28 -10 30 -24z m-1178 -75 c229 -102 721
-320 790 -349 36 -16 115 -50 175 -78 372 -167 535 -241 735 -332 124 -56 311
-141 415 -187 105 -47 233 -105 285 -128 115 -51 343 -153 541 -241 170 -75
132 -79 377 35 85 39 159 71 164 71 6 0 52 -16 104 -35 51 -19 106 -35 121
-35 34 1 696 298 730 328 21 19 23 28 23 126 l0 105 53 -19 c28 -10 93 -34
143 -54 106 -41 95 -42 269 34 66 29 154 67 195 85 41 18 107 47 145 65 39 18
93 43 122 55 28 13 56 31 61 42 6 10 8 48 5 85 -9 104 -10 103 109 57 57 -22
133 -52 170 -65 77 -30 145 -83 164 -131 11 -25 14 -112 14 -402 0 -387 1
-381 -41 -381 -5 0 -9 154 -9 376 0 333 -2 379 -17 404 -16 28 -51 50 -79 50
-17 0 -334 -135 -659 -280 -817 -366 -1722 -757 -1904 -822 l-55 -20 -65 25
c-36 14 -147 62 -246 107 -99 45 -270 121 -380 170 -185 81 -562 250 -1305
585 -162 73 -374 167 -470 210 -96 42 -312 138 -480 212 -358 159 -561 243
-588 243 -41 0 -63 -32 -69 -97 -10 -106 13 -164 44 -115 6 11 33 33 59 50 47
32 90 39 142 26 21 -6 17 -9 -27 -28 -51 -21 -68 -40 -127 -135 l-27 -43 22
-69 c12 -38 33 -82 47 -98 29 -35 30 -45 3 -82 -11 -16 -32 -64 -46 -107 -14
-42 -29 -85 -35 -95 -6 -13 -3 -34 11 -73 l21 -55 -55 -25 -55 -25 -51 27
c-28 15 -54 35 -59 43 -10 21 -10 411 1 411 4 0 3 15 -2 32 -12 42 -12 118 0
118 6 0 6 12 0 32 -5 18 -9 79 -9 136 0 121 5 129 111 183 76 39 318 137 339
138 8 0 76 -26 150 -60z m985 37 c17 -12 18 -28 16 -191 -1 -97 -5 -183 -8
-191 -6 -16 -31 -18 -53 -4 -12 7 -16 45 -21 187 -6 173 -6 179 15 195 26 21
27 21 51 4z m392 -32 c3 -9 -3 -23 -16 -35 -11 -11 -21 -25 -21 -31 0 -6 -9
-3 -20 7 -19 18 -27 55 -13 68 13 13 64 7 70 -9z m3991 -16 c9 -9 12 -70 12
-214 0 -178 -2 -204 -17 -222 -10 -11 -61 -39 -113 -61 -52 -22 -176 -77 -275
-122 -99 -45 -195 -84 -213 -86 -60 -9 -62 -3 -62 228 0 205 0 209 23 223 12
8 96 47 187 86 91 40 219 96 285 126 124 55 153 62 173 42z m1060 -105 c3
-108 2 -113 -18 -113 -19 0 -20 6 -20 95 0 77 -3 96 -16 103 -24 13 -7 34 24
30 l27 -3 3 -112z m715 85 c8 -42 8 -157 1 -180 -7 -22 -30 -23 -38 -2 -3 9
-6 51 -6 94 0 53 -4 80 -12 84 -9 3 -7 9 6 20 30 24 43 19 49 -16z m-494 6
c20 -15 23 -22 17 -59 -4 -31 -1 -46 9 -55 23 -19 18 -56 -11 -79 -32 -25 -71
-27 -103 -5 -21 15 -23 22 -18 65 4 35 2 51 -9 59 -19 16 -18 49 3 72 20 23
80 24 112 2z m611 -14 c0 -28 -13 -40 -24 -22 -7 12 5 52 15 52 5 0 9 -13 9
-30z m60 0 c0 -10 -7 -20 -15 -24 -11 -4 -15 1 -15 18 0 12 3 26 6 29 11 10
24 -3 24 -23z m-390 8 c0 -7 -7 -22 -15 -32 -22 -29 -19 -36 19 -36 63 0 86
-65 41 -114 -27 -29 -60 -33 -92 -11 -41 29 -42 128 -2 179 21 27 49 35 49 14z
m-5745 -32 c12 -18 13 -30 5 -50 -5 -15 -10 -95 -10 -177 0 -137 -1 -149 -18
-149 -47 0 -52 16 -59 193 -6 152 -5 169 12 187 24 27 51 25 70 -4z m3101 -85
c159 -49 301 -94 317 -100 l27 -11 0 -225 c0 -124 -3 -225 -7 -225 -5 0 -42
11 -83 23 l-75 24 -3 166 -2 167 -38 24 c-20 13 -122 52 -227 86 -230 74 -255
84 -255 107 0 10 -3 29 -7 42 -6 23 -4 23 29 17 19 -3 165 -46 324 -95z
m-2728 67 c18 -18 15 -25 -19 -42 -47 -23 -66 -2 -32 36 19 21 34 23 51 6z
m-190 -45 c4 -10 6 -102 4 -205 -4 -185 -4 -188 -25 -188 -49 1 -52 8 -57 192
-3 95 -3 178 -2 185 3 10 42 30 64 32 4 1 11 -7 16 -16z m2634 -104 c150 -49
279 -92 287 -95 23 -8 -16 -30 -177 -99 -81 -35 -223 -97 -316 -139 -94 -42
-173 -76 -178 -76 -4 0 -8 7 -8 15 0 18 -17 20 -22 3 -3 -8 -76 12 -234 65
-306 104 -355 122 -356 132 0 10 7 13 327 146 199 82 355 138 387 139 9 0 140
-41 290 -91z m2788 11 c0 -13 -7 -20 -20 -20 -13 0 -20 7 -20 20 0 13 7 20 20
20 13 0 20 -7 20 -20z m-5240 0 c12 -8 14 -37 12 -182 -4 -207 -5 -212 -40
-203 -15 4 -29 9 -32 12 -3 2 -7 80 -10 171 -5 129 -3 172 7 190 14 23 38 28
63 12z m-2294 -65 c21 -13 21 -20 23 -324 2 -249 -1 -311 -11 -311 -7 0 -30
16 -50 35 l-38 34 0 297 0 296 28 -7 c15 -3 37 -13 48 -20z m2667 -9 c7 -19
-1 -26 -30 -26 -16 0 -23 6 -23 20 0 14 7 20 24 20 13 0 26 -6 29 -14z m-185
-28 c6 -8 8 -80 4 -191 l-5 -179 -30 6 c-17 4 -35 12 -39 19 -9 14 -11 318 -2
341 7 19 57 21 72 4z m-1894 -30 c22 -31 21 -85 -3 -97 -14 -8 -23 -5 -43 17
-51 57 -52 61 -33 82 24 26 60 25 79 -2z m286 -66 c96 -44 283 -129 415 -187
132 -59 285 -128 340 -152 55 -25 138 -62 185 -83 237 -105 1012 -453 1275
-573 66 -30 208 -93 315 -140 107 -47 252 -111 322 -141 70 -31 136 -56 148
-56 22 0 38 7 245 105 66 31 208 97 315 145 107 49 250 116 318 149 67 34 125
61 128 61 2 0 125 56 272 124 354 164 618 285 722 331 47 20 128 56 180 80 52
23 100 41 107 38 15 -6 27 -39 19 -52 -3 -5 -95 -48 -203 -96 -296 -131 -574
-256 -798 -360 -296 -137 -566 -262 -685 -316 -58 -26 -175 -79 -260 -119 -85
-39 -187 -85 -227 -101 -107 -45 -104 -31 -101 -420 l3 -323 26 -15 c24 -13
33 -11 160 49 74 35 177 82 229 105 164 74 331 150 433 199 l97 47 0 319 c0
303 1 320 19 337 18 16 355 177 701 334 434 196 577 263 614 286 66 42 264
133 290 133 12 0 30 -8 40 -18 15 -17 16 -48 14 -283 l-3 -263 -80 -32 c-94
-38 -135 -50 -135 -38 0 5 27 17 59 27 109 34 102 16 101 267 -1 120 -4 228
-7 240 -5 18 -11 21 -37 17 -31 -5 -190 -71 -213 -90 -10 -7 -13 -62 -13 -213
0 -170 -2 -204 -14 -204 -33 0 -46 30 -46 106 l0 75 -57 25 c-32 14 -83 36
-113 50 l-55 25 -75 -37 c-116 -57 -220 -104 -277 -125 -46 -18 -54 -25 -63
-57 -5 -20 -10 -43 -10 -49 0 -18 -10 -16 -48 7 -18 11 -42 20 -53 20 -11 0
-77 -27 -147 -61 -70 -34 -137 -65 -150 -70 -12 -5 -32 -25 -43 -44 -16 -27
-31 -38 -65 -46 -24 -6 -49 -18 -56 -27 -10 -11 -14 -76 -15 -248 l-3 -233 26
-30 c19 -23 34 -31 57 -31 39 0 93 31 102 59 6 20 8 20 28 6 30 -21 64 -19
137 10 84 33 86 32 17 -10 -61 -37 -137 -73 -392 -190 -88 -40 -230 -106 -315
-145 -85 -39 -207 -94 -270 -122 -63 -27 -169 -75 -235 -106 -88 -42 -131 -56
-160 -56 -27 1 -97 28 -220 84 -164 75 -338 154 -455 207 -111 50 -152 69
-260 118 -501 228 -680 309 -715 325 -601 272 -1164 532 -1252 578 -42 22 -61
48 -25 35 14 -5 362 -159 1012 -448 52 -23 121 -54 153 -68 32 -15 59 -27 62
-27 2 0 178 -79 392 -177 627 -285 645 -293 684 -293 35 0 37 2 43 42 9 58 6
310 -5 329 -4 9 -86 51 -181 94 -95 43 -220 99 -278 126 -58 26 -238 106 -400
178 -162 71 -351 155 -420 186 -69 31 -174 79 -235 105 -237 104 -312 138
-375 168 -36 16 -128 58 -205 92 -77 34 -198 89 -268 122 -100 47 -131 58
-140 49 -8 -8 -12 -54 -13 -134 -3 -259 -2 -255 -24 -267 -22 -12 -81 13 -113
48 -17 19 -17 21 3 71 30 78 28 209 -6 329 -24 85 -25 94 -11 110 45 50 61
175 32 255 -9 27 -10 37 -2 33 7 -2 91 -40 187 -84z m1984 46 c8 -14 7 -21 -6
-34 -15 -15 -16 -15 -23 6 -6 18 -9 19 -16 9 -11 -19 -34 4 -25 26 8 21 55 16
70 -7z m5165 -12 c6 -7 9 -21 5 -30 -6 -14 -50 -16 -455 -16 -390 0 -450 2
-455 15 -4 8 -4 22 0 30 5 13 64 15 449 15 365 0 447 -2 456 -14z m-5356 -28
c9 -17 12 -66 9 -190 l-3 -168 -28 0 c-16 0 -33 6 -39 13 -6 7 -12 80 -13 176
-2 150 -1 165 16 177 27 20 43 17 58 -8z m2461 -14 c8 -21 6 -347 -2 -403 l-7
-45 -110 -49 c-60 -27 -213 -97 -339 -155 -218 -99 -231 -104 -255 -91 l-26
15 0 219 0 219 200 86 c110 48 265 116 345 152 152 70 184 78 194 52z m-5766
-17 c19 -20 21 -28 11 -55 -7 -22 -7 -36 0 -51 38 -71 -48 -134 -117 -85 -26
18 -30 78 -7 104 14 15 14 18 0 30 -20 17 -19 57 3 69 32 19 87 13 110 -12z
m3680 1 c2 -10 -5 -19 -18 -23 -16 -5 -20 -13 -17 -27 8 -29 -16 -17 -27 14
-13 38 -1 60 31 56 16 -2 29 -10 31 -20z m-3940 2 c19 0 14 -18 -8 -25 -27 -8
-27 -45 0 -45 11 0 27 -11 36 -25 15 -23 15 -27 0 -50 -16 -24 -72 -65 -88
-65 -20 0 -5 31 22 46 55 33 50 70 -8 59 l-35 -6 7 52 c9 66 13 72 40 65 11
-3 27 -6 34 -6z m-168 -120 c0 -55 -4 -100 -9 -100 -13 0 -22 172 -9 187 6 7
12 13 14 13 2 0 4 -45 4 -100z m630 80 c0 -5 -12 -10 -26 -10 -14 0 -23 4 -19
10 3 6 15 10 26 10 10 0 19 -4 19 -10z m3290 -25 c22 -23 23 -29 12 -58 -7
-20 -12 -88 -12 -165 0 -75 -4 -132 -9 -132 -5 0 -21 4 -34 9 -23 9 -24 12
-31 173 -6 158 -6 163 15 181 28 22 31 22 59 -8z m364 9 c21 -8 22 -72 1 -80
-17 -7 -65 21 -65 36 0 10 36 50 44 50 2 0 11 -3 20 -6z m654 -53 c199 -67
422 -148 437 -159 6 -4 8 -88 5 -234 l-5 -226 -150 57 -150 57 -5 183 c-6 210
10 181 -140 249 -158 71 -190 55 -190 -95 0 -80 -11 -108 -24 -60 -3 12 -6 82
-6 155 l0 132 26 0 c14 0 105 -27 202 -59z m3781 3 c12 -15 21 -37 21 -49 0
-35 -37 -75 -69 -75 -41 0 -81 35 -81 71 0 69 88 105 129 53z m-8088 6 c26
-14 24 -36 -6 -56 -29 -19 -61 -11 -68 17 -10 37 33 60 74 39z m7649 1 c0 -11
-35 -21 -72 -21 -29 0 -38 14 -15 23 21 9 87 7 87 -2z m-4175 -37 c15 -23 16
-33 6 -64 -6 -21 -11 -97 -11 -170 l0 -132 -27 7 c-16 3 -31 9 -35 13 -3 4 -8
81 -9 171 -3 161 -3 164 20 182 30 25 35 24 56 -7z m375 -43 c0 -20 -30 -33
-50 -21 -20 13 -3 40 25 40 18 0 25 -5 25 -19z m-193 -23 c7 -8 9 -82 5 -195
-5 -181 -5 -183 -27 -183 -12 0 -27 6 -32 13 -6 6 -13 86 -16 177 -5 141 -3
168 10 183 19 20 46 22 60 5z m571 -315 c2 -307 1 -323 -16 -323 -10 0 -28 9
-40 20 -22 20 -22 25 -22 313 0 314 1 321 50 315 l25 -3 3 -322z m3398 298
c15 -30 3 -65 -31 -97 -14 -13 -25 -32 -25 -43 0 -16 11 -22 58 -31 133 -27
155 -37 132 -65 -9 -11 -20 -9 -68 13 -94 43 -232 29 -308 -30 -26 -21 -27
-21 -40 -3 -9 12 -10 22 -4 30 11 13 120 51 171 60 34 5 37 9 41 43 4 27 0 40
-12 49 -27 19 -30 50 -8 78 26 34 77 32 94 -4z m242 -57 c12 -8 22 -26 22 -39
0 -24 -33 -55 -59 -55 -23 0 -51 31 -51 56 0 15 10 29 28 38 34 19 33 19 60 0z
m-6854 -28 c32 -29 32 -36 1 -82 -25 -36 -35 -104 -15 -104 14 0 42 -59 36
-76 -10 -26 -54 -36 -86 -19 -40 20 -62 66 -68 140 -5 67 12 115 52 147 29 24
50 22 80 -6z m2833 12 c6 -8 8 -89 5 -195 l-4 -183 -27 6 c-14 4 -30 11 -36
16 -17 15 -23 319 -8 346 15 24 55 30 70 10z m4417 -34 c21 -20 20 -27 -5 -50
-15 -14 -24 -16 -37 -8 -24 16 -27 45 -6 61 23 17 29 16 48 -3z m-4226 -238
l2 -189 -32 7 c-18 3 -36 10 -39 14 -11 10 -15 335 -5 350 4 8 21 12 39 10
l32 -3 3 -189z m-4123 163 c25 -12 43 -25 40 -29 -2 -4 -40 -10 -82 -12 -43
-3 -93 -11 -111 -19 l-33 -14 56 -32 c31 -18 62 -33 69 -33 6 0 29 -12 51 -27
55 -37 135 -44 175 -14 17 12 32 17 35 11 3 -5 24 -14 46 -20 33 -9 50 -8 88
6 31 11 60 14 82 10 44 -8 144 -59 143 -71 -4 -27 -348 -99 -449 -93 -68 4
-74 7 -192 81 -67 42 -130 77 -141 77 -28 0 -115 31 -134 48 -45 38 -7 89 77
102 33 6 89 19 125 29 84 25 101 25 155 0z m8169 -5 c23 -22 20 -71 -3 -84
-33 -17 -56 -11 -80 21 l-23 31 23 24 c26 28 60 31 83 8z m-756 -82 c2 -13 -7
-35 -22 -52 -14 -17 -28 -46 -32 -65 -6 -33 -26 -46 -39 -25 -3 5 -6 31 -7 56
-1 43 3 51 36 82 40 36 59 38 64 4z m-7284 8 c28 -10 34 -38 14 -58 -13 -13
-87 -16 -125 -6 -45 12 -21 44 46 65 36 10 36 10 65 -1z m7814 4 c52 -14 29
-109 -25 -102 -14 2 -35 15 -46 30 -19 25 -19 28 -3 52 17 26 33 31 74 20z
m-7663 -33 c15 -6 9 -9 -27 -12 -45 -4 -63 3 -35 14 18 8 39 7 62 -2z m7315
-21 c0 -34 -23 -49 -49 -33 -37 24 -21 63 27 63 18 0 22 -5 22 -30z m163 24
c3 -3 1 -19 -5 -35 -7 -21 -16 -29 -33 -29 -30 0 -37 12 -29 45 5 19 13 25 33
25 15 0 30 -3 34 -6z m-6061 -51 l68 -28 0 -147 c0 -82 -2 -148 -5 -148 -3 0
-37 16 -75 35 l-69 35 -3 140 c-2 89 1 140 7 140 6 0 40 -12 77 -27z m5728 17
c0 -5 -4 -10 -10 -10 -5 0 -10 5 -10 10 0 6 5 10 10 10 6 0 10 -4 10 -10z
m-5420 -300 c0 -106 -3 -140 -12 -139 -7 0 -47 17 -88 37 l-75 37 -8 115 c-5
63 -6 129 -2 146 l5 32 90 -44 90 -44 0 -140z m-2200 185 c0 -19 10 -30 43
-46 23 -12 58 -35 79 -50 64 -51 104 -63 208 -62 68 1 123 9 195 28 55 15 110
29 123 32 17 4 32 -3 53 -23 26 -25 30 -35 26 -65 -12 -88 -67 -135 -201 -169
-99 -25 -270 -27 -359 -4 -146 38 -266 119 -287 193 -15 54 4 108 56 159 45
46 64 48 64 7z m8431 6 c60 -60 24 -151 -59 -151 -41 0 -74 25 -87 68 -5 16
-14 22 -36 22 -28 0 -42 18 -16 22 6 0 17 2 22 2 6 1 24 16 42 34 43 43 92 44
134 3z m-6699 -22 c3 -31 0 -43 -14 -50 -28 -15 -55 5 -60 46 -5 46 18 48 31
3 l9 -33 2 30 c2 30 2 30 10 5 8 -24 8 -23 9 8 1 45 8 40 13 -9z m4942 16 c11
-8 17 -17 15 -20 -3 -2 -48 -25 -101 -49 -53 -25 -103 -52 -112 -61 -25 -25
-38 -91 -45 -220 -6 -113 -7 -120 -26 -117 -37 6 -47 27 -52 111 -5 75 -8 84
-35 106 -16 14 -34 25 -39 25 -18 0 -8 28 24 63 23 27 73 56 182 107 83 38
155 70 160 70 6 -1 19 -7 29 -15z m-5676 -42 c57 -33 62 -39 62 -83 1 -79 15
-92 190 -165 70 -29 305 -135 485 -217 61 -28 133 -61 160 -73 28 -13 109 -50
180 -83 72 -33 168 -77 215 -97 47 -21 177 -81 290 -133 113 -52 248 -114 300
-137 403 -180 581 -261 685 -310 66 -31 158 -74 205 -95 47 -21 166 -75 265
-120 309 -141 459 -207 499 -220 74 -24 159 -9 297 53 68 30 180 80 249 110
69 30 204 90 300 134 96 45 195 90 220 101 221 99 498 225 602 273 69 32 129
59 133 59 3 0 41 16 84 36 l79 36 48 -22 49 -21 -70 -28 c-99 -40 -567 -249
-970 -434 -393 -180 -838 -375 -885 -387 -77 -21 -98 -14 -460 150 -113 51
-256 117 -319 146 -62 30 -115 54 -117 54 -2 0 -61 27 -131 61 -71 34 -216
101 -323 149 -376 170 -579 262 -755 345 -55 26 -179 82 -275 125 -206 92
-407 182 -470 212 -76 35 -351 159 -420 188 -395 170 -425 186 -446 236 -13
32 -20 184 -8 184 3 0 26 -12 52 -27z m6833 -15 c5 -19 3 -28 -8 -32 -24 -9
-103 -7 -103 3 0 18 63 62 83 59 13 -2 23 -14 28 -30z m359 17 c0 -33 -97 -56
-124 -29 -27 26 0 41 82 43 31 1 42 -3 42 -14z m-6855 -62 c66 -30 172 -79
235 -108 63 -30 142 -65 175 -79 33 -13 110 -48 170 -76 132 -63 309 -143 385
-175 54 -23 171 -76 470 -215 85 -40 202 -92 259 -117 57 -24 165 -73 240
-107 75 -35 242 -112 371 -171 129 -59 287 -131 350 -160 63 -29 142 -66 175
-80 33 -15 131 -61 218 -101 87 -41 176 -78 196 -83 73 -16 62 -20 731 282
140 63 296 134 345 157 50 23 110 50 135 60 25 10 98 43 163 74 65 31 126 56
135 56 9 -1 41 -9 70 -19 l52 -18 -62 -27 c-35 -16 -110 -49 -168 -76 -303
-138 -467 -212 -675 -305 -126 -57 -316 -141 -420 -188 -105 -48 -209 -89
-232 -93 -73 -11 -80 -9 -698 274 -719 328 -1185 541 -1510 687 -137 62 -362
164 -500 227 -137 63 -352 161 -478 218 -125 56 -238 111 -251 121 -17 14 -25
31 -27 63 -5 51 -18 53 146 -21z m6600 58 c3 -5 1 -12 -5 -16 -5 -3 -10 1 -10
9 0 18 6 21 15 7z m-1145 -11 c0 -6 -52 -36 -115 -67 -65 -31 -120 -65 -127
-76 -6 -11 -14 -70 -19 -130 -4 -60 -10 -111 -13 -114 -11 -12 -18 77 -12 161
4 65 11 98 24 116 11 15 62 44 123 72 105 47 139 57 139 38z m1227 -102 c15
-7 47 -25 71 -41 36 -24 55 -29 115 -32 118 -4 161 -36 138 -98 -22 -57 -96
-55 -107 3 -4 19 -16 32 -35 41 -16 6 -46 25 -67 41 -20 17 -63 43 -94 59 -32
16 -58 31 -58 34 0 7 6 6 37 -7z m-417 -34 c12 -22 12 -29 -1 -52 -19 -35 -42
-38 -68 -11 -38 41 -22 89 29 89 18 0 31 -8 40 -26z m-4925 -113 c-1 -28 -2
-96 -3 -151 l-2 -100 -72 36 c-40 20 -76 42 -80 48 -4 6 -8 75 -8 153 l0 142
83 -39 82 -39 0 -50z m4169 43 c82 -36 152 -67 155 -70 3 -3 0 -8 -6 -12 -19
-12 -63 -84 -63 -103 0 -11 -2 -19 -5 -19 -15 0 -323 134 -337 147 -22 20 -22
26 -2 69 19 40 60 66 89 57 11 -3 87 -34 169 -69z m-692 14 l50 -21 -111 -54
c-67 -33 -118 -64 -128 -79 -21 -32 -53 -149 -53 -194 0 -58 -11 -64 -56 -34
-21 15 -42 32 -46 38 -35 58 -38 54 -31 -48 6 -92 5 -99 -11 -93 -10 4 -26 7
-37 7 -18 0 -19 8 -19 122 l0 123 78 73 c60 57 101 84 187 126 61 30 114 55
118 55 5 1 31 -9 59 -21z m1836 -15 c35 -30 38 -68 8 -98 -14 -14 -26 -34 -26
-43 0 -12 -12 -4 -40 25 -46 49 -50 74 -15 108 29 30 46 31 73 8z m-5194 -44
l56 -22 0 -154 c0 -85 -3 -153 -8 -151 -4 2 -31 14 -60 27 l-52 25 0 148 c0
81 2 148 4 148 2 0 29 -10 60 -21z m4922 13 c55 -37 18 -127 -44 -107 -19 5
-42 44 -42 70 0 29 60 55 86 37z m-1428 -14 c-2 -7 -52 -38 -110 -68 -58 -30
-113 -61 -121 -68 -27 -23 -46 -93 -51 -192 -6 -114 -5 -110 -16 -85 -20 47
-3 229 26 287 13 25 60 52 224 125 34 16 52 16 48 1z m874 -24 c3 -3 -16 -27
-42 -53 -47 -47 -95 -145 -81 -166 3 -6 -2 -2 -11 8 -39 42 -9 142 55 188 38
27 67 36 79 23z m-4122 -236 c0 -81 -3 -148 -6 -148 -4 0 -32 12 -64 26 l-57
26 -7 60 c-7 72 -8 233 -1 240 3 2 34 -9 70 -26 l65 -30 0 -148z m4220 192 c0
-5 -6 -10 -13 -10 -17 0 -85 -66 -102 -100 -7 -14 -16 -42 -20 -63 -4 -21 -12
-34 -17 -31 -13 8 -3 125 12 154 21 39 140 81 140 50z m90 -29 c0 -5 -12 -17
-27 -26 -60 -38 -103 -106 -103 -165 l-1 -45 -20 25 c-18 21 -20 33 -14 85 7
63 21 86 70 116 31 19 95 26 95 10z m540 -1 c19 -6 11 -8 -32 -9 -33 -1 -58 3
-58 9 0 12 54 12 90 0z m-6873 -31 c93 -12 234 -58 316 -102 83 -44 173 -137
211 -217 26 -55 31 -77 31 -145 0 -66 -5 -90 -27 -137 -28 -61 -107 -153 -140
-164 -37 -11 -238 -41 -238 -34 0 12 25 37 118 119 51 46 101 100 112 121 60
119 -20 272 -184 350 -104 49 -177 63 -321 64 -235 1 -428 -67 -557 -196 -83
-83 -110 -142 -116 -250 -4 -75 -1 -93 18 -133 48 -98 168 -184 311 -221 234
-61 1056 72 1571 255 127 45 154 48 198 26 28 -15 70 -60 70 -76 0 -29 -446
-172 -720 -232 -156 -35 -359 -71 -575 -103 -232 -35 -482 -39 -590 -11 -258
68 -431 243 -443 447 -8 141 32 254 133 370 67 78 125 121 231 171 178 85 409
123 591 98z m7177 -20 c33 -38 33 -73 1 -104 -28 -29 -45 -31 -84 -10 -33 16
-41 33 -41 80 0 67 79 88 124 34z m-766 13 c9 -6 1 -15 -25 -33 -45 -29 -83
-98 -83 -151 0 -69 -37 -52 -47 22 -13 94 91 202 155 162z m-1222 -41 c38 -16
121 -52 184 -80 84 -38 126 -51 160 -51 26 0 80 -9 121 -19 84 -22 292 -100
268 -101 -25 0 -107 -59 -136 -97 -15 -19 -32 -55 -39 -81 -7 -30 -17 -46 -25
-44 -8 1 -65 23 -127 49 -116 47 -154 74 -184 131 -18 33 -22 35 -305 169 -29
13 -53 31 -53 38 0 11 7 10 33 -5 58 -34 254 -112 227 -90 -32 26 -203 110
-224 110 -9 0 -19 6 -22 14 -6 17 20 72 38 79 7 3 14 6 14 6 1 1 32 -12 70
-28z m-3052 3 c9 -8 16 -12 16 -7 1 4 9 -2 19 -14 10 -12 21 -19 25 -16 4 4 5
-51 4 -123 l-3 -129 -24 3 c-13 1 -36 8 -50 15 -26 12 -26 13 -29 150 -2 115
0 137 12 137 8 0 22 -7 30 -16z m-3160 -10 c19 -19 19 -24 2 -46 -18 -24 -53
-23 -66 3 -9 16 -8 25 6 40 21 23 37 24 58 3z m7611 -43 c50 -17 133 -42 185
-56 191 -52 289 -116 341 -220 28 -56 31 -72 26 -119 -21 -210 -248 -307 -588
-250 -149 25 -481 140 -499 173 -13 26 19 82 62 105 l35 19 84 -35 c118 -51
281 -103 365 -118 190 -34 374 21 374 112 0 84 -91 149 -275 198 -255 68 -311
88 -321 114 -2 6 2 29 11 50 16 39 65 70 95 61 8 -2 56 -18 105 -34z m-1032
18 c21 0 21 -1 -2 -10 -19 -7 -28 -6 -40 7 -15 15 -14 16 2 10 10 -3 28 -6 40
-7z m-1263 -159 c0 -71 -6 -90 -31 -90 -16 0 -19 8 -19 50 0 53 24 115 40 105
6 -4 10 -33 10 -65z m-5200 45 c0 -8 -7 -15 -15 -15 -16 0 -20 12 -8 23 11 12
23 8 23 -8z m5335 -45 c0 -16 -6 -26 -17 -28 -14 -3 -18 3 -18 28 0 25 4 31
18 28 11 -2 17 -12 17 -28z m-1871 -85 c4 -27 9 -74 13 -102 l5 -53 -29 0
c-35 0 -53 16 -53 49 0 13 3 21 8 17 4 -4 7 -13 7 -18 0 -6 5 -13 11 -15 12
-4 24 62 24 135 0 57 6 52 14 -13z m1416 25 c0 -24 -38 -50 -75 -53 -45 -3
-39 18 12 45 60 32 63 32 63 8z m50 -75 c0 -57 -3 -75 -14 -75 -26 0 -36 73
-16 124 18 48 30 28 30 -49z m867 24 c27 -55 27 -56 3 -69 -30 -16 -57 4 -72
51 -11 37 -10 43 7 55 27 20 37 14 62 -37z m-4922 6 c-1 -11 -575 -208 -583
-200 -17 17 29 40 195 96 103 34 224 75 268 90 80 28 120 33 120 14z m6058 8
c4 -3 -10 -14 -31 -23 -20 -9 -56 -35 -79 -58 -39 -38 -51 -64 -68 -145 -6
-27 -7 -28 -28 -14 -53 35 -20 152 62 215 34 26 52 32 90 32 26 0 51 -3 54 -7z
m-3683 -23 c13 -24 -5 -27 -33 -6 -14 11 -15 15 -5 19 22 9 27 8 38 -13z
m2408 -8 c2 -12 8 -20 13 -17 10 7 12 -19 3 -53 -7 -25 -55 -55 -76 -47 -19 7
-48 58 -48 84 0 54 101 85 108 33z m-320 -34 c-4 -40 -29 -44 -39 -6 -8 31 -3
38 23 38 16 0 19 -6 16 -32z m1657 20 c31 -14 32 -24 3 -32 -13 -3 -40 -19
-60 -36 -39 -32 -68 -102 -68 -162 l0 -29 -30 18 c-40 23 -47 53 -25 109 23
60 60 103 110 125 48 22 39 21 70 7z m-1915 -13 c10 -12 10 -18 0 -30 -25 -30
-53 -15 -43 23 6 26 25 28 43 7z m118 -60 c3 -73 -7 -97 -33 -75 -28 23 -13
158 18 148 7 -3 13 -30 15 -73z m-3588 35 c0 -5 -5 -10 -11 -10 -5 0 -7 5 -4
10 3 6 8 10 11 10 2 0 4 -4 4 -10z m292 -16 c-2 -10 -3 -41 -3 -67 1 -35 -3
-49 -15 -54 -23 -9 -34 15 -34 74 0 39 4 55 18 62 23 14 38 8 34 -15z m-889 1
c2 -9 -579 -212 -610 -214 -7 -1 -13 5 -13 13 0 9 100 47 303 114 166 56 306
100 310 99 5 -2 9 -7 10 -12z m752 -99 c1 -64 -2 -75 -17 -79 -26 -7 -41 27
-35 75 5 35 30 78 46 78 3 0 6 -33 6 -74z m3115 49 c0 -19 -83 -60 -105 -52
-23 9 -10 26 39 47 51 23 66 24 66 5z m48 -87 c-2 -50 -6 -63 -20 -66 -16 -3
-18 5 -18 62 0 60 2 66 20 66 19 0 21 -5 18 -62z m-3293 35 c-15 -34 -17 -71
-6 -92 10 -18 9 -22 -5 -28 -27 -10 -56 33 -48 71 7 36 31 66 52 66 10 0 12
-5 7 -17z m-474 -9 c14 -17 11 -20 -43 -49 -36 -20 -355 -129 -486 -167 -104
-30 -152 -31 -152 -3 0 21 18 28 243 105 111 38 240 82 287 99 97 34 132 38
151 15z m1177 -24 c45 -28 80 -69 88 -104 5 -24 2 -34 -17 -49 -23 -19 -24
-19 -38 5 -30 47 -92 98 -140 115 -51 18 -55 28 -17 43 37 15 90 11 124 -10z
m2742 -19 c0 -5 -7 -14 -15 -21 -18 -15 -42 1 -31 19 8 13 46 15 46 2z m1540
-51 c8 -5 11 -10 5 -10 -5 0 -17 5 -25 10 -8 5 -10 10 -5 10 6 0 17 -5 25 -10z
m-1742 -32 c3 -14 -65 -48 -97 -48 -23 0 -5 25 35 47 42 25 57 25 62 1z m2022
-84 c31 -9 37 -13 20 -13 -14 0 -43 8 -65 19 -22 11 -31 17 -20 14 11 -4 40
-13 65 -20z m-4196 -43 c33 -17 72 -40 86 -51 l25 -20 -25 -20 c-14 -10 -49
-29 -78 -41 -61 -25 -55 -39 16 -39 28 0 72 12 123 35 87 38 105 41 143 24 28
-13 39 -34 31 -58 -3 -10 -61 -45 -130 -79 -144 -72 -174 -76 -267 -36 -47 20
-71 24 -98 19 -19 -4 -43 -7 -54 -6 -21 0 -126 61 -126 73 0 11 68 44 209 102
68 28 124 55 125 60 0 5 -13 15 -29 22 -26 10 -40 9 -100 -10 -39 -12 -86 -30
-105 -39 -106 -49 -150 -58 -150 -33 0 14 107 70 215 112 72 29 105 26 189
-15z m3806 -37 c102 -51 177 -128 230 -237 22 -46 40 -93 40 -105 0 -20 -5
-22 -68 -22 l-68 0 -18 51 c-21 58 -86 149 -148 208 -31 30 -64 48 -123 67
-44 15 -84 30 -88 34 -5 4 7 17 25 29 47 31 120 23 218 -25z m620 -39 c20 -25
8 -50 -25 -50 -24 0 -31 5 -33 24 -6 37 34 55 58 26z m-228 -71 c11 -23 10
-29 -11 -45 -26 -22 -55 -12 -66 21 -16 49 56 71 77 24z m-491 -22 c66 -42
126 -124 143 -196 l7 -29 -43 7 c-55 9 -128 35 -152 55 -32 27 -46 68 -46 131
0 56 2 60 23 60 13 0 43 -13 68 -28z m-193 -76 c2 -36 0 -47 -10 -44 -8 3 -14
24 -16 52 -2 36 0 47 10 44 8 -3 14 -24 16 -52z m-4115 6 c22 -20 22 -55 -2
-76 -10 -10 -61 -33 -113 -53 -51 -19 -122 -46 -158 -60 -141 -54 -152 -56
-203 -34 -87 38 -58 66 156 149 287 112 279 110 320 74z m1267 -2 c55 -28 60
-33 60 -64 0 -45 -18 -59 -156 -117 -66 -28 -179 -77 -251 -110 -80 -36 -146
-59 -165 -58 -51 1 -520 237 -535 269 -18 37 0 36 82 -1 58 -26 77 -30 117
-25 41 6 56 2 120 -30 75 -38 135 -47 161 -26 8 7 74 36 148 66 74 29 170 70
214 90 44 19 95 36 113 36 18 0 59 -14 92 -30z m3976 -5 c8 -20 -23 -67 -92
-136 -69 -70 -197 -138 -324 -171 -72 -19 -112 -22 -260 -22 -224 -1 -293 12
-586 110 -245 81 -324 112 -324 124 0 10 56 30 83 30 11 0 120 -33 241 -74
299 -101 391 -120 581 -120 183 1 265 17 390 78 75 37 104 59 163 120 53 56
78 76 97 76 14 0 28 -7 31 -15z m-5878 -159 l23 -12 -41 -28 c-23 -15 -48 -43
-58 -64 -9 -20 -18 -39 -19 -41 -2 -2 -12 4 -23 14 -21 19 -19 21 -35 -30 -7
-22 -43 -18 -55 5 -14 27 -5 53 33 97 60 68 122 89 175 59z m-434 -8 c-4 -7
-17 -26 -29 -43 -47 -65 -76 -126 -89 -188 -44 -212 112 -384 374 -412 81 -9
163 6 300 53 114 39 193 45 301 23 29 -6 70 -13 89 -16 19 -3 37 -10 40 -15 3
-4 37 -20 75 -36 39 -15 79 -35 90 -45 11 -9 52 -34 90 -54 39 -21 75 -41 80
-45 35 -24 115 -43 181 -42 85 2 150 24 248 83 37 22 83 47 100 54 41 17 76 9
76 -17 0 -23 -123 -104 -230 -151 -70 -30 -82 -32 -190 -32 -135 0 -176 13
-330 105 -176 106 -257 139 -372 155 -49 6 -180 -22 -159 -34 5 -4 -4 -13 -22
-21 -26 -11 -28 -15 -13 -18 14 -3 7 -9 -25 -23 -201 -91 -405 -90 -595 1 -92
45 -182 120 -221 187 -83 142 -64 368 41 497 21 25 32 29 102 36 44 4 83 8 87
9 5 0 5 -5 1 -11z m2700 -64 c9 -22 1 -31 -42 -45 -38 -12 -385 -161 -617
-264 -128 -57 -131 -58 -181 -47 -28 6 -184 74 -345 152 -378 183 -377 183
-417 176 -22 -3 -32 -1 -30 6 7 21 53 48 89 54 32 5 66 -8 270 -109 352 -173
407 -197 454 -197 30 0 252 92 600 247 170 76 157 72 186 57 15 -7 29 -21 33
-30z m1698 20 c35 -18 58 -52 58 -87 0 -35 -28 -80 -47 -73 -8 3 -11 2 -8 -3
8 -14 -31 -23 -66 -16 -44 10 -54 45 -30 101 16 34 17 44 6 44 -7 0 -21 -7
-30 -17 -14 -13 -18 -14 -25 -3 -12 19 4 53 31 67 26 14 68 9 111 -13z m-3842
-91 c36 -19 68 -38 72 -41 4 -4 -2 -18 -12 -32 l-19 -25 -70 35 c-67 32 -87
50 -58 50 8 0 8 3 -2 9 -8 5 -22 8 -32 6 -18 -4 -18 -2 -3 21 19 29 29 27 124
-23z m2346 12 c20 -31 10 -63 -23 -71 -45 -12 -69 41 -36 78 22 25 39 23 59
-7z m1148 -32 c9 -22 -20 -44 -88 -68 -28 -10 -73 -30 -101 -45 -74 -40 -184
-82 -196 -75 -5 4 -8 1 -7 -7 2 -9 -7 -12 -27 -11 -20 2 -25 -1 -16 -6 26 -16
-133 -64 -183 -54 -41 8 -242 93 -300 127 -54 31 -58 49 -15 66 28 12 37 10
112 -25 245 -113 236 -113 517 13 74 33 158 70 185 81 63 25 111 27 119 4z
m-3275 -29 l23 -17 -48 -26 c-41 -22 -51 -33 -63 -71 -8 -25 -15 -46 -16 -48
-7 -8 -34 13 -43 33 -11 24 -2 66 23 106 25 39 85 50 124 23z m-633 -34 c6
-19 23 -39 39 -47 39 -21 106 -20 143 3 41 24 62 9 44 -31 -22 -48 -83 -56
-185 -25 -92 29 -132 83 -91 125 22 22 37 15 50 -25z m4716 -49 c116 -57 246
-138 258 -161 7 -14 4 -33 -12 -76 l-22 -57 33 -28 c18 -15 30 -32 27 -38 -11
-17 -268 -149 -316 -162 -43 -11 -48 -10 -125 29 -55 28 -108 46 -165 56 -111
20 -133 27 -210 67 -89 46 -87 46 -65 13 39 -61 104 -92 245 -118 83 -16 122
-31 219 -86 63 -35 92 -37 162 -11 68 26 50 7 -61 -63 -49 -32 -104 -59 -122
-62 -39 -6 -112 27 -293 134 -183 108 -208 125 -224 153 -32 57 13 138 116
208 27 18 65 56 84 84 41 61 98 98 210 138 108 38 150 35 261 -20z m-3942 -31
c47 -22 94 -40 106 -40 12 0 33 -11 48 -25 15 -14 36 -25 47 -25 10 0 19 -5
19 -11 0 -5 4 -8 9 -4 6 3 49 -15 98 -39 48 -24 109 -54 135 -67 54 -25 79
-50 97 -95 24 -61 -26 -114 -60 -64 -13 19 -592 300 -618 300 -4 0 -17 9 -30
21 -20 19 -21 22 -7 38 9 10 13 20 10 24 -12 11 8 27 34 27 15 0 65 -18 112
-40z m3353 -42 c95 -47 94 -51 -41 -114 l-94 -44 -42 28 c-37 26 -41 32 -40
70 1 47 22 77 69 98 36 16 47 13 148 -38z m922 -3 c28 -27 33 -66 11 -84 -11
-9 -16 -5 -26 18 -7 17 -26 37 -47 46 -28 13 -32 19 -22 31 18 22 57 17 84
-11z m-4677 -48 c7 -60 -77 -107 -206 -115 -96 -5 -157 8 -196 45 -51 47 -11
70 49 29 30 -21 50 -26 99 -26 87 0 183 34 205 71 20 36 45 33 49 -4z m2386
-4 c16 -8 52 -34 81 -58 55 -44 64 -47 175 -65 81 -12 114 -35 118 -83 5 -60
-37 -95 -233 -194 l-172 -87 -69 36 c-77 41 -148 61 -276 78 -78 11 -91 15
-113 42 -14 16 -25 39 -25 50 0 23 48 71 94 95 50 26 169 109 190 132 27 30
82 63 120 71 36 9 69 3 110 -17z m-1374 -66 c52 -24 133 -61 179 -82 46 -22
79 -41 74 -42 -9 -3 -428 188 -441 202 -10 10 79 -27 188 -78z m4228 71 c20
-20 14 -48 -14 -60 -23 -11 -29 -10 -45 11 -15 18 -16 26 -6 42 13 21 47 25
65 7z m-225 -38 c61 -68 14 -169 -80 -170 -108 0 -143 144 -48 199 34 20 97 6
128 -29z m-3106 -66 c8 -22 -12 -36 -119 -80 -48 -20 -94 -44 -100 -52 -8 -9
-15 -62 -18 -143 -5 -119 -7 -129 -30 -154 -36 -39 -130 -83 -130 -61 0 2 -3
11 -6 19 -3 10 10 23 40 41 25 14 49 32 53 39 4 6 10 67 13 134 6 119 7 124
35 154 33 35 196 118 233 119 12 0 25 -7 29 -16z m1461 -18 c52 -27 88 -92
102 -186 5 -30 12 -69 15 -86 5 -22 2 -35 -10 -47 -24 -25 -32 -21 -40 21 -12
70 -47 151 -67 158 -16 5 -19 13 -16 47 3 39 1 42 -24 45 -16 2 -28 -1 -28 -7
0 -5 -16 -15 -35 -21 -19 -6 -35 -15 -35 -18 0 -13 15 -28 33 -35 30 -11 47
-70 48 -164 2 -71 3 -80 9 -48 7 38 8 37 6 -14 -1 -39 -6 -57 -18 -65 -9 -5
-20 -7 -24 -4 -3 4 -11 48 -17 98 -9 82 -12 93 -36 108 -58 36 -71 54 -71 99
0 54 21 98 58 117 35 19 115 20 150 2z m-320 -72 c30 -21 28 -39 -8 -66 l-30
-22 35 -28 c42 -35 53 -73 57 -188 l3 -85 -26 -3 c-32 -4 -39 15 -39 100 0 54
-3 61 -45 108 -39 44 -45 56 -45 96 0 37 6 51 29 75 34 34 39 34 69 13z m1669
-56 c-3 -8 -6 -5 -6 6 -1 11 2 17 5 13 3 -3 4 -12 1 -19z m0 -40 c-3 -8 -6 -5
-6 6 -1 11 2 17 5 13 3 -3 4 -12 1 -19z m-1972 -144 c-20 -32 -112 -90 -233
-150 -137 -67 -172 -68 -343 -11 -160 53 -263 107 -149 78 19 -5 49 -12 65
-15 52 -11 7 12 -67 34 -38 12 -68 23 -68 27 0 3 10 2 23 -1 69 -20 137 -33
137 -27 0 3 -38 19 -85 35 -47 16 -84 30 -82 32 1 1 45 -4 97 -12 119 -17 214
-46 262 -79 20 -14 42 -25 48 -25 6 0 38 14 71 31 34 17 100 47 148 68 47 21
109 51 136 68 l50 30 3 -29 c2 -16 -4 -41 -13 -54z m1034 -20 c58 -31 151 -83
206 -115 181 -104 206 -104 442 15 89 46 163 80 163 76 0 -6 -120 -79 -180
-110 -14 -8 -20 -15 -14 -17 11 -4 134 56 172 83 12 9 22 12 22 8 0 -5 -31
-33 -70 -63 -38 -29 -70 -55 -70 -57 0 -3 87 46 120 68 8 6 -3 -7 -25 -28
l-40 -37 39 22 c21 12 41 19 44 17 12 -13 -82 -82 -173 -127 -131 -64 -214
-78 -320 -54 -121 27 -317 137 -404 229 -37 39 -32 48 9 16 43 -34 43 -22 1
27 -23 25 -39 48 -37 50 2 2 26 -8 52 -22 l49 -27 -55 51 c-30 27 -51 50 -46
51 5 0 57 -25 115 -56z m-1089 -135 c-19 -17 -61 -44 -94 -60 -32 -17 -56 -33
-53 -35 6 -6 146 53 162 67 18 18 28 9 10 -11 -9 -10 -20 -18 -24 -18 -7 2
-111 -51 -111 -57 0 -6 72 25 88 37 7 6 15 8 18 6 7 -7 -42 -42 -86 -61 -19
-9 -28 -16 -20 -16 8 0 44 15 79 34 l64 35 -29 -31 c-39 -41 -114 -83 -199
-110 -138 -45 -355 -20 -505 57 -75 38 -76 42 -2 14 79 -30 85 -23 11 15 -36
18 -71 40 -77 48 -7 8 8 4 36 -10 63 -31 110 -44 117 -32 4 5 -2 9 -13 9 -11
0 -30 8 -43 18 -13 10 -41 27 -62 37 -59 30 -65 47 -8 19 28 -13 56 -24 62
-24 5 0 7 -4 4 -10 -3 -5 -2 -10 3 -10 5 0 25 -3 43 -6 29 -5 23 1 -36 35 -75
43 -80 51 -20 25 20 -8 98 -31 173 -50 109 -28 148 -34 191 -30 63 7 190 56
281 107 80 45 84 46 40 8z m867 -32 c-7 -18 -102 -75 -167 -101 -186 -74 -480
-53 -480 35 0 25 20 28 55 8 94 -53 334 -20 515 71 46 24 57 26 69 15 7 -7 11
-20 8 -28z m-2107 -34 c47 -69 136 -84 195 -32 36 32 60 33 72 4 21 -56 -75
-104 -173 -86 -104 20 -176 78 -159 131 10 31 37 24 65 -17z"/>
<path d="M4162 9553 c-47 -73 -46 -87 6 -91 l42 -3 0 70 c0 39 -4 71 -9 71 -5
0 -23 -21 -39 -47z"/>
<path d="M6062 9573 c2 -22 9 -29 31 -31 19 -2 27 1 27 12 0 30 -13 46 -37 46
-21 0 -24 -4 -21 -27z m38 -4 c0 -6 -4 -7 -10 -4 -5 3 -10 11 -10 16 0 6 5 7
10 4 6 -3 10 -11 10 -16z"/>
<path d="M6053 9454 c-9 -24 10 -49 40 -52 21 -3 28 2 33 22 3 14 3 30 -1 35
-10 17 -65 13 -72 -5z"/>
<path d="M6010 9366 c15 -15 80 -40 80 -30 0 3 -41 24 -85 42 -5 2 -3 -3 5
-12z"/>
<path d="M3772 9398 c2 -25 8 -33 23 -33 16 0 20 7 20 30 0 24 -5 31 -23 33
-21 3 -23 0 -20 -30z"/>
<path d="M3567 9413 c-4 -3 -7 -17 -7 -30 0 -16 6 -23 20 -23 21 0 40 27 33
48 -5 13 -35 17 -46 5z"/>
<path d="M6551 9411 c-20 -36 -14 -53 17 -49 23 2 27 8 27 33 0 36 -28 46 -44
16z"/>
<path d="M3880 8950 c0 -16 5 -21 23 -18 12 2 22 10 22 18 0 8 -10 16 -22 18
-18 3 -23 -2 -23 -18z"/>
<path d="M4452 8978 c-16 -16 -15 -28 3 -28 8 0 15 2 15 4 0 2 3 11 6 20 7 19
-7 21 -24 4z"/>
<path d="M4600 8998 c0 -36 14 -52 29 -34 17 20 10 50 -12 54 -12 3 -17 -3
-17 -20z"/>
<path d="M5773 8965 c-10 -22 -9 -25 7 -25 19 0 34 25 24 41 -9 15 -18 10 -31
-16z"/>
<path d="M5981 8963 c-1 -6 -10 -15 -21 -18 -23 -7 -27 -25 -6 -25 18 0 39 26
33 42 -4 9 -6 9 -6 1z"/>
<path d="M6125 9008 c-13 -39 -8 -78 10 -78 18 0 29 40 20 69 -7 23 -23 28
-30 9z"/>
<path d="M6354 8956 c-18 -14 -18 -15 -1 -21 23 -9 47 1 47 20 0 19 -20 19
-46 1z"/>
<path d="M6514 9006 c-9 -23 0 -51 16 -51 10 0 16 12 18 33 2 24 -1 32 -13 32
-8 0 -18 -6 -21 -14z"/>
<path d="M3542 9008 c-24 -24 -11 -78 20 -78 16 0 19 6 16 42 -3 44 -16 56
-36 36z"/>
<path d="M7831 6154 c0 -11 3 -14 6 -6 3 7 2 16 -1 19 -3 4 -6 -2 -5 -13z"/>
<path d="M2860 5935 c-11 -13 -10 -14 4 -9 9 3 16 10 16 15 0 13 -6 11 -20 -6z"/>
<path d="M554 6016 c-3 -7 -4 -38 -2 -67 l3 -54 56 -3 56 -3 7 47 c3 25 3 57
0 70 -6 22 -11 24 -60 24 -37 0 -56 -4 -60 -14z"/>
<path d="M894 6017 c-3 -8 -4 -39 -2 -68 l3 -54 55 0 55 0 0 65 0 65 -53 3
c-38 2 -54 -1 -58 -11z"/>
<path d="M1605 5805 c-27 -26 -31 -54 -15 -86 10 -18 23 -19 211 -19 l199 0
12 25 c16 36 -1 87 -32 96 -14 4 -98 7 -188 8 -160 1 -163 1 -187 -24z"/>
<path d="M592 5600 l-31 -50 39 0 40 0 0 50 c0 28 -4 50 -9 50 -4 0 -22 -22
-39 -50z"/>
<path d="M9183 5656 c-15 -13 -25 -27 -22 -30 3 -3 18 8 34 24 35 36 27 40
-12 6z"/>
<path d="M9242 5619 c-19 -7 -23 -15 -20 -41 3 -30 6 -33 38 -33 31 0 35 3 38
28 3 26 -12 58 -27 56 -3 0 -16 -4 -29 -10z"/>
<path d="M9222 5458 c-28 -28 -4 -98 34 -98 47 0 68 45 44 91 -12 22 -59 26
-78 7z"/>
<path d="M941 5235 l-31 -46 37 3 c35 3 38 6 41 37 6 55 -12 57 -47 6z"/>
<path d="M822 4748 c-158 -27 -240 -201 -164 -348 22 -45 37 -60 87 -88 57
-32 63 -33 134 -27 41 3 78 8 82 11 9 5 -26 87 -38 91 -5 2 -14 -10 -20 -27
-14 -38 -35 -46 -84 -30 -34 12 -38 16 -32 38 6 27 10 26 -57 6 -24 -8 -26 12
-5 40 21 28 19 36 -10 36 -30 0 -48 36 -43 84 3 28 7 31 36 31 33 0 45 21 17
31 -17 7 -20 50 -5 59 6 4 18 1 26 -6 8 -6 16 -10 17 -8 2 2 11 16 20 32 19
29 54 36 63 12 7 -17 34 -21 34 -5 0 11 30 13 54 4 26 -10 18 -43 -20 -90 -21
-26 -34 -50 -30 -59 8 -23 25 -18 52 14 13 16 38 34 54 40 46 15 57 -16 43
-116 -17 -114 -1 -136 39 -55 84 171 -61 363 -250 330z"/>
<path d="M806 4524 c-3 -9 -2 -23 4 -32 7 -14 9 -10 10 16 0 35 -5 41 -14 16z"/>
<path d="M7050 4350 c0 -5 5 -10 11 -10 5 0 7 5 4 10 -3 6 -8 10 -11 10 -2 0
-4 -4 -4 -10z"/>
<path d="M3365 4651 c-7 -12 12 -24 25 -16 11 7 4 25 -10 25 -5 0 -11 -4 -15
-9z"/>
<path d="M7640 4439 c-36 -17 -144 -64 -240 -106 -235 -101 -248 -108 -256
-139 -10 -41 2 -344 14 -356 8 -8 83 22 259 101 136 62 268 122 293 134 l45
22 0 185 0 185 -25 2 c-14 2 -54 -11 -90 -28z m-50 -84 c0 -7 -178 -94 -245
-120 -27 -11 -53 -21 -57 -23 -5 -2 -8 0 -8 5 0 9 56 36 170 83 30 12 73 31
95 41 44 21 45 21 45 14z m59 -209 c-8 -8 -45 -28 -84 -44 -38 -17 -126 -55
-194 -86 -114 -50 -141 -57 -141 -38 0 4 33 23 73 43 192 97 273 133 305 136
20 2 38 6 41 9 2 2 7 2 10 -1 2 -3 -2 -12 -10 -19z"/>
<path d="M8977 4458 c-8 -30 5 -42 38 -34 36 9 32 50 -6 54 -20 2 -28 -2 -32
-20z"/>
<path d="M8997 4373 c-13 -12 -7 -51 9 -57 24 -9 54 12 54 39 0 21 -5 25 -28
25 -16 0 -32 -3 -35 -7z"/>
<path d="M9310 4360 c0 -35 22 -49 46 -29 24 20 14 53 -18 57 -25 3 -28 0 -28
-28z"/>
<path d="M2510 3920 c0 -6 9 -14 20 -17 24 -6 25 -15 4 -70 -17 -44 -15 -61 6
-48 18 11 62 117 53 126 -15 14 -83 22 -83 9z"/>
<path d="M2691 3853 c-7 -16 -15 -51 -18 -79 -5 -45 -3 -53 18 -68 35 -24 55
-20 73 18 17 36 14 100 -6 139 -14 27 -53 21 -67 -10z m49 -11 c0 -4 -5 -13
-12 -20 -9 -9 -8 -15 6 -25 16 -12 17 -17 6 -37 -10 -18 -14 -20 -21 -9 -10
16 -12 83 -2 92 9 10 23 9 23 -1z"/>
<path d="M2784 3836 c-10 -39 3 -61 35 -64 35 -3 45 9 35 40 l-7 23 -10 -25
-10 -25 -5 25 c-2 13 1 26 7 28 21 7 11 22 -14 22 -18 0 -26 -7 -31 -24z"/>
<path d="M2900 3782 c-31 -25 -40 -114 -15 -142 25 -28 59 -26 73 5 17 37 15
107 -4 133 -18 27 -25 27 -54 4z m34 -38 c15 -39 -10 -112 -31 -90 -4 5 -2 11
5 13 15 6 16 65 0 81 -9 9 -8 12 4 12 9 0 19 -7 22 -16z"/>
<path d="M3121 3599 c-39 -94 -20 -110 28 -24 36 64 38 75 12 75 -13 0 -25
-16 -40 -51z"/>
<path d="M3256 3595 c-39 -93 -25 -155 34 -155 26 0 31 5 41 42 20 77 -3 148
-48 148 -7 0 -19 -16 -27 -35z m44 -65 c0 -39 -3 -50 -16 -50 -13 0 -15 7 -10
31 3 17 6 40 6 50 0 11 5 19 10 19 6 0 10 -22 10 -50z"/>
<path d="M3400 3578 c0 -2 -2 -42 -3 -90 -2 -76 0 -88 16 -92 15 -4 17 5 17
90 0 77 -3 94 -15 94 -8 0 -15 -1 -15 -2z"/>
<path d="M7699 3509 c-11 -28 -10 -33 6 -45 25 -18 50 -18 69 2 33 32 13 74
-35 74 -20 0 -30 -7 -40 -31z"/>
<path d="M3540 3475 c0 -8 11 -17 25 -21 14 -3 25 -10 25 -15 0 -6 -11 -32
-25 -59 -30 -59 -30 -60 -7 -60 12 0 27 19 45 58 15 31 27 63 27 70 0 7 -16
20 -35 28 -43 18 -55 18 -55 -1z"/>
<path d="M3747 3388 c-8 -13 -17 -49 -20 -80 -5 -51 -3 -60 16 -73 31 -22 54
-19 72 9 13 20 15 37 8 93 -8 64 -10 68 -35 71 -19 2 -31 -3 -41 -20z m53 -28
c9 -17 8 -20 -8 -20 -24 0 -32 8 -25 26 7 20 20 17 33 -6z m-10 -71 c7 -11 9
-23 6 -26 -8 -9 -36 17 -36 33 0 21 18 17 30 -7z"/>
<path d="M3850 3364 c-26 -31 17 -95 54 -81 22 9 22 82 0 91 -25 10 -41 7 -54
-10z m48 -33 c3 -16 -1 -22 -10 -19 -7 3 -15 15 -16 27 -3 16 1 22 10 19 7 -3
15 -15 16 -27z"/>
<path d="M3961 3316 c-22 -27 -23 -71 -3 -96 27 -34 37 -19 25 35 -8 34 -7 45
1 42 12 -4 21 -90 12 -113 -5 -12 -9 -12 -26 -2 -17 11 -22 10 -30 -2 -13 -22
7 -40 45 -40 28 0 35 5 44 31 17 49 14 113 -6 131 -27 23 -50 28 -62 14z"/>
<path d="M4197 3173 c-13 -12 -7 -21 18 -27 30 -8 31 -21 5 -64 -23 -38 -25
-52 -7 -52 14 0 67 90 67 113 0 9 -10 19 -22 22 -13 4 -30 9 -39 11 -8 2 -18
1 -22 -3z"/>
<path d="M4380 3110 c-7 -16 -13 -53 -14 -82 -1 -45 2 -53 23 -64 31 -16 48
-9 66 27 20 37 19 84 -2 120 -23 39 -57 39 -73 -1z m45 -57 c-2 -34 -8 -49
-19 -51 -19 -4 -20 9 -5 61 14 52 27 46 24 -10z"/>
<path d="M4501 3004 c-11 -59 -10 -68 5 -85 21 -23 62 -25 70 -4 7 18 -3 115
-14 131 -4 6 -16 14 -28 18 -19 6 -22 0 -33 -60z m47 -48 c3 -13 -1 -17 -14
-14 -11 2 -20 11 -22 22 -3 13 1 17 14 14 11 -2 20 -11 22 -22z"/>
<path d="M4762 2917 c-7 -8 -9 -35 -5 -71 5 -45 11 -61 29 -72 18 -12 27 -13
44 -4 17 9 21 19 18 53 -3 40 -5 42 -36 45 -28 3 -31 6 -21 18 6 8 20 14 30
14 11 0 19 7 19 15 0 19 -63 21 -78 2z m58 -108 c0 -12 -27 -11 -35 1 -11 17
5 32 21 19 8 -6 14 -15 14 -20z"/>
<path d="M5266 2739 c-14 -11 -26 -25 -26 -31 0 -6 8 -4 18 5 10 10 26 17 34
17 47 0 86 -90 53 -123 -20 -21 -63 -22 -84 -3 -15 13 -16 -6 -13 -212 2 -157
7 -231 15 -241 18 -21 98 -54 107 -44 5 4 11 114 14 243 2 129 8 255 11 279 9
53 -13 102 -51 120 -35 16 -48 14 -78 -10z"/>
<path d="M6715 4051 c-11 -5 -97 -43 -190 -84 -94 -41 -224 -99 -290 -127 -66
-29 -126 -57 -133 -63 -20 -16 -13 -376 8 -389 11 -7 40 2 105 33 50 23 191
88 315 144 l225 103 7 163 c9 225 5 241 -47 220z m-161 -141 c-11 -11 -247
-119 -326 -150 -27 -10 -45 -14 -42 -8 6 9 99 55 234 115 36 16 76 34 90 40
33 15 57 16 44 3z m90 -163 c15 -11 15 -15 4 -24 -7 -6 -108 -55 -223 -108
-116 -53 -214 -101 -219 -106 -14 -13 -26 -11 -26 5 0 19 56 61 91 69 44 11
135 56 114 57 -20 1 -20 1 -1 15 10 8 22 12 26 10 14 -8 87 23 142 59 59 40
66 42 92 23z"/>
<path d="M957 4063 c-4 -3 -7 -17 -7 -30 0 -18 6 -23 24 -23 25 0 43 30 31 50
-7 11 -38 13 -48 3z"/>
<path d="M943 3954 c-8 -22 10 -49 32 -49 10 0 22 7 28 16 15 24 1 49 -28 49
-15 0 -28 -7 -32 -16z"/>
<path d="M4856 3975 c-4 -12 -1 -16 11 -13 18 3 21 20 5 26 -5 1 -12 -4 -16
-13z"/>
<path d="M1243 3123 c15 -2 37 -2 50 0 12 2 0 4 -28 4 -27 0 -38 -2 -22 -4z"/>
<path d="M1227 3093 c18 -2 50 -2 70 0 21 2 7 4 -32 4 -38 0 -55 -2 -38 -4z"/>
<path d="M1228 3063 c17 -2 47 -2 65 0 17 2 3 4 -33 4 -36 0 -50 -2 -32 -4z"/>
<path d="M7057 2923 c-11 -11 -8 -23 6 -23 7 0 66 -20 132 -45 65 -25 120 -44
122 -42 4 5 -230 117 -243 117 -6 0 -14 -3 -17 -7z"/>
<path d="M7216 2820 c10 -10 161 -70 174 -70 11 1 -56 33 -118 57 -37 13 -62
19 -56 13z"/>
<path d="M6681 1454 c-95 -25 -143 -55 -168 -105 -26 -49 -42 -139 -25 -139 5
0 29 36 51 80 23 44 48 80 54 80 7 0 37 -19 67 -41 30 -23 74 -51 98 -61 55
-25 141 -34 181 -20 17 6 31 8 31 5 0 -16 -64 -115 -86 -132 -36 -28 -75 -11
-150 64 l-61 62 9 -40 c5 -22 12 -47 17 -56 5 -9 7 -20 5 -26 -2 -5 20 -20 49
-33 71 -30 139 -29 204 3 62 31 147 119 174 181 19 42 19 47 5 70 -20 29 -88
65 -190 99 -86 29 -180 32 -265 9z m203 -65 c28 -22 33 -48 14 -67 -16 -16
-100 -15 -122 1 -25 18 -17 58 14 74 36 18 64 16 94 -8z"/>
<path d="M2867 1463 c-14 -13 -6 -23 19 -23 22 0 25 2 14 15 -14 16 -23 19
-33 8z"/>
<path d="M6160 1387 c0 -19 69 -83 78 -71 4 5 5 8 3 6 -8 -4 -61 51 -61 65 0
7 -4 13 -10 13 -5 0 -10 -6 -10 -13z"/>
<path d="M4887 1266 c-48 -18 -62 -29 -81 -70 -19 -39 -21 -95 -5 -129 40 -89
239 -74 270 20 22 68 -18 150 -88 179 -39 17 -48 17 -96 0z m76 -61 c37 -7 35
-23 -3 -17 -18 3 -40 -3 -56 -13 -20 -13 -29 -14 -38 -5 -14 15 26 50 51 45
10 -2 30 -6 46 -10z"/>
<path d="M7500 1321 c-14 -26 -13 -64 2 -79 17 -17 64 -15 82 4 21 21 20 57
-2 77 -25 23 -69 22 -82 -2z"/>
</g>
</svg>
